<?xml version="1.0" encoding="UTF-8"?>
<svg width="46px" height="47px" viewBox="0 0 46 47" version="1.1" xmlns="http://www.w3.org/2000/svg" xmlns:xlink="http://www.w3.org/1999/xlink">
    <!-- Generator: Sketch 55.2 (78181) - https://sketchapp.com -->
    <title>airplay</title>
    <desc>Created with Sketch.</desc>
    <defs>
        <path d="M9.58333333,31.3333333 C10.6418791,31.3333333 11.5,32.210109 11.5,33.2916667 C11.5,34.3732243 10.6418791,35.25 9.58333333,35.25 L7.66666667,35.25 C4.49102936,35.25 1.91666667,32.6196729 1.91666667,29.375 L1.91666667,9.79166667 C1.91666667,6.54699376 4.49102936,3.91666667 7.66666667,3.91666667 L38.3333333,3.91666667 C41.5089706,3.91666667 44.0833333,6.54699376 44.0833333,9.79166667 L44.0833333,29.375 C44.0833333,32.6196729 41.5089706,35.25 38.3333333,35.25 L36.4166667,35.25 C35.3581209,35.25 34.5,34.3732243 34.5,33.2916667 C34.5,32.210109 35.3581209,31.3333333 36.4166667,31.3333333 L38.3333333,31.3333333 C39.3918791,31.3333333 40.25,30.4565576 40.25,29.375 L40.25,9.79166667 C40.25,8.71010903 39.3918791,7.83333333 38.3333333,7.83333333 L7.66666667,7.83333333 C6.6081209,7.83333333 5.75,8.71010903 5.75,9.79166667 L5.75,29.375 C5.75,30.4565576 6.6081209,31.3333333 7.66666667,31.3333333 L9.58333333,31.3333333 Z M24.4724241,28.1213056 L34.0557575,39.8713056 C35.0960713,41.1468208 34.2083555,43.0833333 32.5833333,43.0833333 L13.4166667,43.0833333 C11.7916445,43.0833333 10.9039287,41.1468208 11.9442425,39.8713056 L21.5275759,28.1213056 C22.2938498,27.181787 23.7061502,27.181787 24.4724241,28.1213056 Z M17.5088298,39.1666667 L28.4911702,39.1666667 L23,32.4340145 L17.5088298,39.1666667 Z" id="path-1"></path>
    </defs>
    <g id="Page-1" stroke="none" stroke-width="1" fill="none" fill-rule="evenodd">
        <g id="Home-v1" transform="translate(-560.000000, -4834.000000)">
            <g id="Group-2" transform="translate(290.000000, 4267.000000)">
                <g id="airplay" transform="translate(270.000000, 567.000000)">
                    <mask id="mask-2" fill="white">
                        <use xlink:href="#path-1"></use>
                    </mask>
                    <use id="Combined-Shape" fill="#000000" fill-rule="nonzero" xlink:href="#path-1"></use>
                    <g id="COLOR/-black" mask="url(#mask-2)" fill="#035099">
                        <rect id="Rectangle" x="0" y="0" width="46" height="47"></rect>
                    </g>
                </g>
            </g>
        </g>
    </g>
</svg>