<?xml version="1.0" encoding="UTF-8"?>
<svg width="42px" height="37px" viewBox="0 0 42 37" version="1.1" xmlns="http://www.w3.org/2000/svg" xmlns:xlink="http://www.w3.org/1999/xlink">
    <!-- Generator: Sketch 55.2 (78181) - https://sketchapp.com -->
    <title>mdpi/camera</title>
    <desc>Created with Sketch.</desc>
    <defs>
        <path d="M30.6865716,5.55 L36.75,5.55 C39.6494949,5.55 42,8.03481964 42,11.1 L42,31.45 C42,34.5151804 39.6494949,37 36.75,37 L5.25,37 C2.35050506,37 0,34.5151804 0,31.45 L0,11.1 C0,8.03481964 2.35050506,5.55 5.25,5.55 L11.3134284,5.55 L14.293912,0.823804637 C14.6184771,0.3091371 15.1648819,0 15.75,0 L26.25,0 C26.8351181,0 27.3815229,0.3091371 27.706088,0.823804637 L30.6865716,5.55 Z M16.6865716,3.7 L13.706088,8.42619536 C13.3815229,8.9408629 12.8351181,9.25 12.25,9.25 L5.25,9.25 C4.28350169,9.25 3.5,10.0782732 3.5,11.1 L3.5,31.45 C3.5,32.4717268 4.28350169,33.3 5.25,33.3 L36.75,33.3 C37.7164983,33.3 38.5,32.4717268 38.5,31.45 L38.5,11.1 C38.5,10.0782732 37.7164983,9.25 36.75,9.25 L29.75,9.25 C29.1648819,9.25 28.6184771,8.9408629 28.293912,8.42619536 L25.3134284,3.7 L16.6865716,3.7 Z M21,29.6 C16.1675084,29.6 12.25,25.4586339 12.25,20.35 C12.25,15.2413661 16.1675084,11.1 21,11.1 C25.8324916,11.1 29.75,15.2413661 29.75,20.35 C29.75,25.4586339 25.8324916,29.6 21,29.6 Z M21,25.9 C23.8994949,25.9 26.25,23.4151804 26.25,20.35 C26.25,17.2848196 23.8994949,14.8 21,14.8 C18.1005051,14.8 15.75,17.2848196 15.75,20.35 C15.75,23.4151804 18.1005051,25.9 21,25.9 Z" id="path-1"></path>
    </defs>
    <g id="Page-1" stroke="none" stroke-width="1" fill="none" fill-rule="evenodd">
        <g id="Account-Settings" transform="translate(-1086.000000, -603.000000)">
            <g id="Group-2" transform="translate(1003.000000, 582.000000)">
                <g id="camera" transform="translate(83.000000, 21.000000)">
                    <mask id="mask-2" fill="white">
                        <use xlink:href="#path-1"></use>
                    </mask>
                    <use id="Combined-Shape" fill="#000000" fill-rule="nonzero" xlink:href="#path-1"></use>
                    <g id="COLOR/-black" mask="url(#mask-2)" fill="#77869E">
                        <g transform="translate(0.000000, -3.700000)" id="Rectangle">
                            <rect x="0" y="0" width="42" height="44.4"></rect>
                        </g>
                    </g>
                </g>
            </g>
        </g>
    </g>
</svg>