<?xml version="1.0" encoding="UTF-8"?>
<svg width="165px" height="313px" viewBox="0 0 165 313" version="1.1" xmlns="http://www.w3.org/2000/svg" xmlns:xlink="http://www.w3.org/1999/xlink">
    <!-- Generator: Sketch 55.2 (78181) - https://sketchapp.com -->
    <title>mdpi/Group</title>
    <desc>Created with Sketch.</desc>
    <g id="Page-1" stroke="none" stroke-width="1" fill="none" fill-rule="evenodd" opacity="0.220982143">
        <g id="Pricing-[3]" transform="translate(0.000000, -1394.000000)" fill="#1B8BC8">
            <g id="Group" transform="translate(-159.000000, 1394.000000)">
                <g id="Group-79-Copy-3" transform="translate(172.000000, 0.000000)">
                    <path d="M9.80645161,4.91803279 C9.80645161,7.63449898 7.61151339,9.83606557 4.90111326,9.83606557 C2.19493822,9.83606557 0,7.63449898 0,4.91803279 C0,2.20156659 2.19493822,0 4.90111326,0 C7.61151339,0 9.80645161,2.20156659 9.80645161,4.91803279" id="Fill-1"></path>
                    <path d="M39.2258065,4.91803279 C39.2258065,7.63449898 37.0308682,9.83606557 34.3215244,9.83606557 C31.6142931,9.83606557 29.4193548,7.63449898 29.4193548,4.91803279 C29.4193548,2.20156659 31.6142931,0 34.3215244,0 C37.0308682,0 39.2258065,2.20156659 39.2258065,4.91803279" id="Fill-3"></path>
                    <path d="M66.1935484,4.91803279 C66.1935484,7.63449898 63.9981372,9.83606557 61.2903226,9.83606557 C58.5814514,9.83606557 56.3870968,7.63449898 56.3870968,4.91803279 C56.3870968,2.20156659 58.5814514,0 61.2903226,0 C63.9981372,0 66.1935484,2.20156659 66.1935484,4.91803279" id="Fill-5"></path>
                    <path d="M95.6129032,4.91803279 C95.6129032,7.63449898 93.4174921,9.83606557 90.7075644,9.83606557 C87.9997498,9.83606557 85.8064516,7.63449898 85.8064516,4.91803279 C85.8064516,2.20156659 87.9997498,0 90.7075644,0 C93.4174921,0 95.6129032,2.20156659 95.6129032,4.91803279" id="Fill-7"></path>
                    <path d="M122.580645,4.91803279 C122.580645,7.63449898 120.386763,9.83606557 117.676363,9.83606557 C114.969132,9.83606557 112.774194,7.63449898 112.774194,4.91803279 C112.774194,2.20156659 114.969132,0 117.676363,0 C120.386763,0 122.580645,2.20156659 122.580645,4.91803279" id="Fill-9"></path>
                    <path d="M9.80645161,31.9672131 C9.80645161,34.6836793 7.61151339,36.8852459 4.90111326,36.8852459 C2.19493822,36.8852459 0,34.6836793 0,31.9672131 C0,29.2518064 2.19493822,27.0491803 4.90111326,27.0491803 C7.61151339,27.0491803 9.80645161,29.2518064 9.80645161,31.9672131" id="Fill-14"></path>
                    <path d="M39.2258065,31.9672131 C39.2258065,34.6836793 37.0308682,36.8852459 34.3215244,36.8852459 C31.6142931,36.8852459 29.4193548,34.6836793 29.4193548,31.9672131 C29.4193548,29.2518064 31.6142931,27.0491803 34.3215244,27.0491803 C37.0308682,27.0491803 39.2258065,29.2518064 39.2258065,31.9672131" id="Fill-16"></path>
                    <path d="M66.1935484,31.9672131 C66.1935484,34.6836793 63.9981372,36.8852459 61.2903226,36.8852459 C58.5814514,36.8852459 56.3870968,34.6836793 56.3870968,31.9672131 C56.3870968,29.2518064 58.5814514,27.0491803 61.2903226,27.0491803 C63.9981372,27.0491803 66.1935484,29.2518064 66.1935484,31.9672131" id="Fill-18"></path>
                    <path d="M95.6129032,31.9672131 C95.6129032,34.6836793 93.4174921,36.8852459 90.7075644,36.8852459 C87.9997498,36.8852459 85.8064516,34.6836793 85.8064516,31.9672131 C85.8064516,29.2518064 87.9997498,27.0491803 90.7075644,27.0491803 C93.4174921,27.0491803 95.6129032,29.2518064 95.6129032,31.9672131" id="Fill-20"></path>
                    <path d="M122.580645,31.9672131 C122.580645,34.6836793 120.386763,36.8852459 117.676363,36.8852459 C114.969132,36.8852459 112.774194,34.6836793 112.774194,31.9672131 C112.774194,29.2518064 114.969132,27.0491803 117.676363,27.0491803 C120.386763,27.0491803 122.580645,29.2518064 122.580645,31.9672131" id="Fill-22"></path>
                    <path d="M9.80645161,62.7055801 C9.80645161,66.099473 7.61151339,68.852459 4.90111326,68.852459 C2.19493822,68.852459 0,66.099473 0,62.7055801 C0,59.3103631 2.19493822,56.557377 4.90111326,56.557377 C7.61151339,56.557377 9.80645161,59.3103631 9.80645161,62.7055801" id="Fill-27"></path>
                    <path d="M39.2258065,62.7055801 C39.2258065,66.099473 37.0308682,68.852459 34.3215244,68.852459 C31.6142931,68.852459 29.4193548,66.099473 29.4193548,62.7055801 C29.4193548,59.3103631 31.6142931,56.557377 34.3215244,56.557377 C37.0308682,56.557377 39.2258065,59.3103631 39.2258065,62.7055801" id="Fill-29"></path>
                    <path d="M66.1935484,62.7055801 C66.1935484,66.099473 63.9981372,68.852459 61.2903226,68.852459 C58.5814514,68.852459 56.3870968,66.099473 56.3870968,62.7055801 C56.3870968,59.3103631 58.5814514,56.557377 61.2903226,56.557377 C63.9981372,56.557377 66.1935484,59.3103631 66.1935484,62.7055801" id="Fill-31"></path>
                    <path d="M95.6129032,62.7055801 C95.6129032,66.099473 93.4174921,68.852459 90.7075644,68.852459 C87.9997498,68.852459 85.8064516,66.099473 85.8064516,62.7055801 C85.8064516,59.3103631 87.9997498,56.557377 90.7075644,56.557377 C93.4174921,56.557377 95.6129032,59.3103631 95.6129032,62.7055801" id="Fill-33"></path>
                    <path d="M122.580645,62.7055801 C122.580645,66.099473 120.386763,68.852459 117.676363,68.852459 C114.969132,68.852459 112.774194,66.099473 112.774194,62.7055801 C112.774194,59.3103631 114.969132,56.557377 117.676363,56.557377 C120.386763,56.557377 122.580645,59.3103631 122.580645,62.7055801" id="Fill-35"></path>
                    <path d="M9.80645161,89.7534363 C9.80645161,93.1486533 7.61151339,95.9016393 4.90111326,95.9016393 C2.19493822,95.9016393 0,93.1486533 0,89.7534363 C0,86.3595434 2.19493822,83.6065574 4.90111326,83.6065574 C7.61151339,83.6065574 9.80645161,86.3595434 9.80645161,89.7534363" id="Fill-40"></path>
                    <path d="M39.2258065,89.7534363 C39.2258065,93.1486533 37.0308682,95.9016393 34.3215244,95.9016393 C31.6142931,95.9016393 29.4193548,93.1486533 29.4193548,89.7534363 C29.4193548,86.3595434 31.6142931,83.6065574 34.3215244,83.6065574 C37.0308682,83.6065574 39.2258065,86.3595434 39.2258065,89.7534363" id="Fill-42"></path>
                    <path d="M66.1935484,89.7534363 C66.1935484,93.1486533 63.9981372,95.9016393 61.2903226,95.9016393 C58.5814514,95.9016393 56.3870968,93.1486533 56.3870968,89.7534363 C56.3870968,86.3595434 58.5814514,83.6065574 61.2903226,83.6065574 C63.9981372,83.6065574 66.1935484,86.3595434 66.1935484,89.7534363" id="Fill-44"></path>
                    <path d="M95.6129032,89.7534363 C95.6129032,93.1486533 93.4174921,95.9016393 90.7075644,95.9016393 C87.9997498,95.9016393 85.8064516,93.1486533 85.8064516,89.7534363 C85.8064516,86.3595434 87.9997498,83.6065574 90.7075644,83.6065574 C93.4174921,83.6065574 95.6129032,86.3595434 95.6129032,89.7534363" id="Fill-46"></path>
                    <path d="M122.580645,89.7534363 C122.580645,93.1486533 120.386763,95.9016393 117.676363,95.9016393 C114.969132,95.9016393 112.774194,93.1486533 112.774194,89.7534363 C112.774194,86.3595434 114.969132,83.6065574 117.676363,83.6065574 C120.386763,83.6065574 122.580645,86.3595434 122.580645,89.7534363" id="Fill-48"></path>
                    <path d="M9.80645161,118.032787 C9.80645161,120.748194 7.61151339,122.95082 4.90111326,122.95082 C2.19493822,122.95082 0,120.748194 0,118.032787 C0,115.316321 2.19493822,113.114754 4.90111326,113.114754 C7.61151339,113.114754 9.80645161,115.316321 9.80645161,118.032787" id="Fill-53"></path>
                    <path d="M39.2258065,118.032787 C39.2258065,120.748194 37.0308682,122.95082 34.3215244,122.95082 C31.6142931,122.95082 29.4193548,120.748194 29.4193548,118.032787 C29.4193548,115.316321 31.6142931,113.114754 34.3215244,113.114754 C37.0308682,113.114754 39.2258065,115.316321 39.2258065,118.032787" id="Fill-55"></path>
                    <path d="M66.1935484,118.032787 C66.1935484,120.748194 63.9981372,122.95082 61.2903226,122.95082 C58.5814514,122.95082 56.3870968,120.748194 56.3870968,118.032787 C56.3870968,115.316321 58.5814514,113.114754 61.2903226,113.114754 C63.9981372,113.114754 66.1935484,115.316321 66.1935484,118.032787" id="Fill-57"></path>
                    <path d="M95.6129032,118.032787 C95.6129032,120.748194 93.4174921,122.95082 90.7075644,122.95082 C87.9997498,122.95082 85.8064516,120.748194 85.8064516,118.032787 C85.8064516,115.316321 87.9997498,113.114754 90.7075644,113.114754 C93.4174921,113.114754 95.6129032,115.316321 95.6129032,118.032787" id="Fill-59"></path>
                    <path d="M122.580645,118.032787 C122.580645,120.748194 120.386763,122.95082 117.676363,122.95082 C114.969132,122.95082 112.774194,120.748194 112.774194,118.032787 C112.774194,115.316321 114.969132,113.114754 117.676363,113.114754 C120.386763,113.114754 122.580645,115.316321 122.580645,118.032787" id="Fill-61"></path>
                    <path d="M9.80645161,145.081967 C9.80645161,147.798433 7.61151339,150 4.90111326,150 C2.19493822,150 0,147.798433 0,145.081967 C0,142.365501 2.19493822,140.163934 4.90111326,140.163934 C7.61151339,140.163934 9.80645161,142.365501 9.80645161,145.081967" id="Fill-66"></path>
                    <path d="M39.2258065,145.081967 C39.2258065,147.798433 37.0308682,150 34.3215244,150 C31.6142931,150 29.4193548,147.798433 29.4193548,145.081967 C29.4193548,142.365501 31.6142931,140.163934 34.3215244,140.163934 C37.0308682,140.163934 39.2258065,142.365501 39.2258065,145.081967" id="Fill-68"></path>
                    <path d="M66.1935484,145.081967 C66.1935484,147.798433 63.9981372,150 61.2903226,150 C58.5814514,150 56.3870968,147.798433 56.3870968,145.081967 C56.3870968,142.365501 58.5814514,140.163934 61.2903226,140.163934 C63.9981372,140.163934 66.1935484,142.365501 66.1935484,145.081967" id="Fill-70"></path>
                    <path d="M95.6129032,145.081967 C95.6129032,147.798433 93.4174921,150 90.7075644,150 C87.9997498,150 85.8064516,147.798433 85.8064516,145.081967 C85.8064516,142.365501 87.9997498,140.163934 90.7075644,140.163934 C93.4174921,140.163934 95.6129032,142.365501 95.6129032,145.081967" id="Fill-72"></path>
                    <path d="M122.580645,145.081967 C122.580645,147.798433 120.386763,150 117.676363,150 C114.969132,150 112.774194,147.798433 112.774194,145.081967 C112.774194,142.365501 114.969132,140.163934 117.676363,140.163934 C120.386763,140.163934 122.580645,142.365501 122.580645,145.081967" id="Fill-74"></path>
                    <path d="M152,4.91803279 C152,7.63449898 149.806118,9.83606557 147.095718,9.83606557 C144.388487,9.83606557 142.193548,7.63449898 142.193548,4.91803279 C142.193548,2.20156659 144.388487,0 147.095718,0 C149.806118,0 152,2.20156659 152,4.91803279" id="Fill-9-Copy"></path>
                    <path d="M152,31.9672131 C152,34.6836793 149.806118,36.8852459 147.095718,36.8852459 C144.388487,36.8852459 142.193548,34.6836793 142.193548,31.9672131 C142.193548,29.2518064 144.388487,27.0491803 147.095718,27.0491803 C149.806118,27.0491803 152,29.2518064 152,31.9672131" id="Fill-22-Copy"></path>
                    <path d="M152,62.7055801 C152,66.099473 149.806118,68.852459 147.095718,68.852459 C144.388487,68.852459 142.193548,66.099473 142.193548,62.7055801 C142.193548,59.3103631 144.388487,56.557377 147.095718,56.557377 C149.806118,56.557377 152,59.3103631 152,62.7055801" id="Fill-35-Copy"></path>
                    <path d="M152,89.7534363 C152,93.1486533 149.806118,95.9016393 147.095718,95.9016393 C144.388487,95.9016393 142.193548,93.1486533 142.193548,89.7534363 C142.193548,86.3595434 144.388487,83.6065574 147.095718,83.6065574 C149.806118,83.6065574 152,86.3595434 152,89.7534363" id="Fill-48-Copy"></path>
                    <path d="M152,118.032787 C152,120.748194 149.806118,122.95082 147.095718,122.95082 C144.388487,122.95082 142.193548,120.748194 142.193548,118.032787 C142.193548,115.316321 144.388487,113.114754 147.095718,113.114754 C149.806118,113.114754 152,115.316321 152,118.032787" id="Fill-61-Copy"></path>
                    <path d="M152,145.081967 C152,147.798433 149.806118,150 147.095718,150 C144.388487,150 142.193548,147.798433 142.193548,145.081967 C142.193548,142.365501 144.388487,140.163934 147.095718,140.163934 C149.806118,140.163934 152,142.365501 152,145.081967" id="Fill-74-Copy"></path>
                </g>
                <g id="Group-79-Copy-2" transform="translate(172.000000, 163.000000)">
                    <path d="M9.80645161,4.91803279 C9.80645161,7.63449898 7.61151339,9.83606557 4.90111326,9.83606557 C2.19493822,9.83606557 0,7.63449898 0,4.91803279 C0,2.20156659 2.19493822,0 4.90111326,0 C7.61151339,0 9.80645161,2.20156659 9.80645161,4.91803279" id="Fill-1"></path>
                    <path d="M39.2258065,4.91803279 C39.2258065,7.63449898 37.0308682,9.83606557 34.3215244,9.83606557 C31.6142931,9.83606557 29.4193548,7.63449898 29.4193548,4.91803279 C29.4193548,2.20156659 31.6142931,0 34.3215244,0 C37.0308682,0 39.2258065,2.20156659 39.2258065,4.91803279" id="Fill-3"></path>
                    <path d="M66.1935484,4.91803279 C66.1935484,7.63449898 63.9981372,9.83606557 61.2903226,9.83606557 C58.5814514,9.83606557 56.3870968,7.63449898 56.3870968,4.91803279 C56.3870968,2.20156659 58.5814514,0 61.2903226,0 C63.9981372,0 66.1935484,2.20156659 66.1935484,4.91803279" id="Fill-5"></path>
                    <path d="M95.6129032,4.91803279 C95.6129032,7.63449898 93.4174921,9.83606557 90.7075644,9.83606557 C87.9997498,9.83606557 85.8064516,7.63449898 85.8064516,4.91803279 C85.8064516,2.20156659 87.9997498,0 90.7075644,0 C93.4174921,0 95.6129032,2.20156659 95.6129032,4.91803279" id="Fill-7"></path>
                    <path d="M122.580645,4.91803279 C122.580645,7.63449898 120.386763,9.83606557 117.676363,9.83606557 C114.969132,9.83606557 112.774194,7.63449898 112.774194,4.91803279 C112.774194,2.20156659 114.969132,0 117.676363,0 C120.386763,0 122.580645,2.20156659 122.580645,4.91803279" id="Fill-9"></path>
                    <path d="M9.80645161,31.9672131 C9.80645161,34.6836793 7.61151339,36.8852459 4.90111326,36.8852459 C2.19493822,36.8852459 0,34.6836793 0,31.9672131 C0,29.2518064 2.19493822,27.0491803 4.90111326,27.0491803 C7.61151339,27.0491803 9.80645161,29.2518064 9.80645161,31.9672131" id="Fill-14"></path>
                    <path d="M39.2258065,31.9672131 C39.2258065,34.6836793 37.0308682,36.8852459 34.3215244,36.8852459 C31.6142931,36.8852459 29.4193548,34.6836793 29.4193548,31.9672131 C29.4193548,29.2518064 31.6142931,27.0491803 34.3215244,27.0491803 C37.0308682,27.0491803 39.2258065,29.2518064 39.2258065,31.9672131" id="Fill-16"></path>
                    <path d="M66.1935484,31.9672131 C66.1935484,34.6836793 63.9981372,36.8852459 61.2903226,36.8852459 C58.5814514,36.8852459 56.3870968,34.6836793 56.3870968,31.9672131 C56.3870968,29.2518064 58.5814514,27.0491803 61.2903226,27.0491803 C63.9981372,27.0491803 66.1935484,29.2518064 66.1935484,31.9672131" id="Fill-18"></path>
                    <path d="M95.6129032,31.9672131 C95.6129032,34.6836793 93.4174921,36.8852459 90.7075644,36.8852459 C87.9997498,36.8852459 85.8064516,34.6836793 85.8064516,31.9672131 C85.8064516,29.2518064 87.9997498,27.0491803 90.7075644,27.0491803 C93.4174921,27.0491803 95.6129032,29.2518064 95.6129032,31.9672131" id="Fill-20"></path>
                    <path d="M122.580645,31.9672131 C122.580645,34.6836793 120.386763,36.8852459 117.676363,36.8852459 C114.969132,36.8852459 112.774194,34.6836793 112.774194,31.9672131 C112.774194,29.2518064 114.969132,27.0491803 117.676363,27.0491803 C120.386763,27.0491803 122.580645,29.2518064 122.580645,31.9672131" id="Fill-22"></path>
                    <path d="M9.80645161,62.7055801 C9.80645161,66.099473 7.61151339,68.852459 4.90111326,68.852459 C2.19493822,68.852459 0,66.099473 0,62.7055801 C0,59.3103631 2.19493822,56.557377 4.90111326,56.557377 C7.61151339,56.557377 9.80645161,59.3103631 9.80645161,62.7055801" id="Fill-27"></path>
                    <path d="M39.2258065,62.7055801 C39.2258065,66.099473 37.0308682,68.852459 34.3215244,68.852459 C31.6142931,68.852459 29.4193548,66.099473 29.4193548,62.7055801 C29.4193548,59.3103631 31.6142931,56.557377 34.3215244,56.557377 C37.0308682,56.557377 39.2258065,59.3103631 39.2258065,62.7055801" id="Fill-29"></path>
                    <path d="M66.1935484,62.7055801 C66.1935484,66.099473 63.9981372,68.852459 61.2903226,68.852459 C58.5814514,68.852459 56.3870968,66.099473 56.3870968,62.7055801 C56.3870968,59.3103631 58.5814514,56.557377 61.2903226,56.557377 C63.9981372,56.557377 66.1935484,59.3103631 66.1935484,62.7055801" id="Fill-31"></path>
                    <path d="M95.6129032,62.7055801 C95.6129032,66.099473 93.4174921,68.852459 90.7075644,68.852459 C87.9997498,68.852459 85.8064516,66.099473 85.8064516,62.7055801 C85.8064516,59.3103631 87.9997498,56.557377 90.7075644,56.557377 C93.4174921,56.557377 95.6129032,59.3103631 95.6129032,62.7055801" id="Fill-33"></path>
                    <path d="M122.580645,62.7055801 C122.580645,66.099473 120.386763,68.852459 117.676363,68.852459 C114.969132,68.852459 112.774194,66.099473 112.774194,62.7055801 C112.774194,59.3103631 114.969132,56.557377 117.676363,56.557377 C120.386763,56.557377 122.580645,59.3103631 122.580645,62.7055801" id="Fill-35"></path>
                    <path d="M9.80645161,89.7534363 C9.80645161,93.1486533 7.61151339,95.9016393 4.90111326,95.9016393 C2.19493822,95.9016393 0,93.1486533 0,89.7534363 C0,86.3595434 2.19493822,83.6065574 4.90111326,83.6065574 C7.61151339,83.6065574 9.80645161,86.3595434 9.80645161,89.7534363" id="Fill-40"></path>
                    <path d="M39.2258065,89.7534363 C39.2258065,93.1486533 37.0308682,95.9016393 34.3215244,95.9016393 C31.6142931,95.9016393 29.4193548,93.1486533 29.4193548,89.7534363 C29.4193548,86.3595434 31.6142931,83.6065574 34.3215244,83.6065574 C37.0308682,83.6065574 39.2258065,86.3595434 39.2258065,89.7534363" id="Fill-42"></path>
                    <path d="M66.1935484,89.7534363 C66.1935484,93.1486533 63.9981372,95.9016393 61.2903226,95.9016393 C58.5814514,95.9016393 56.3870968,93.1486533 56.3870968,89.7534363 C56.3870968,86.3595434 58.5814514,83.6065574 61.2903226,83.6065574 C63.9981372,83.6065574 66.1935484,86.3595434 66.1935484,89.7534363" id="Fill-44"></path>
                    <path d="M95.6129032,89.7534363 C95.6129032,93.1486533 93.4174921,95.9016393 90.7075644,95.9016393 C87.9997498,95.9016393 85.8064516,93.1486533 85.8064516,89.7534363 C85.8064516,86.3595434 87.9997498,83.6065574 90.7075644,83.6065574 C93.4174921,83.6065574 95.6129032,86.3595434 95.6129032,89.7534363" id="Fill-46"></path>
                    <path d="M122.580645,89.7534363 C122.580645,93.1486533 120.386763,95.9016393 117.676363,95.9016393 C114.969132,95.9016393 112.774194,93.1486533 112.774194,89.7534363 C112.774194,86.3595434 114.969132,83.6065574 117.676363,83.6065574 C120.386763,83.6065574 122.580645,86.3595434 122.580645,89.7534363" id="Fill-48"></path>
                    <path d="M9.80645161,118.032787 C9.80645161,120.748194 7.61151339,122.95082 4.90111326,122.95082 C2.19493822,122.95082 0,120.748194 0,118.032787 C0,115.316321 2.19493822,113.114754 4.90111326,113.114754 C7.61151339,113.114754 9.80645161,115.316321 9.80645161,118.032787" id="Fill-53"></path>
                    <path d="M39.2258065,118.032787 C39.2258065,120.748194 37.0308682,122.95082 34.3215244,122.95082 C31.6142931,122.95082 29.4193548,120.748194 29.4193548,118.032787 C29.4193548,115.316321 31.6142931,113.114754 34.3215244,113.114754 C37.0308682,113.114754 39.2258065,115.316321 39.2258065,118.032787" id="Fill-55"></path>
                    <path d="M66.1935484,118.032787 C66.1935484,120.748194 63.9981372,122.95082 61.2903226,122.95082 C58.5814514,122.95082 56.3870968,120.748194 56.3870968,118.032787 C56.3870968,115.316321 58.5814514,113.114754 61.2903226,113.114754 C63.9981372,113.114754 66.1935484,115.316321 66.1935484,118.032787" id="Fill-57"></path>
                    <path d="M95.6129032,118.032787 C95.6129032,120.748194 93.4174921,122.95082 90.7075644,122.95082 C87.9997498,122.95082 85.8064516,120.748194 85.8064516,118.032787 C85.8064516,115.316321 87.9997498,113.114754 90.7075644,113.114754 C93.4174921,113.114754 95.6129032,115.316321 95.6129032,118.032787" id="Fill-59"></path>
                    <path d="M122.580645,118.032787 C122.580645,120.748194 120.386763,122.95082 117.676363,122.95082 C114.969132,122.95082 112.774194,120.748194 112.774194,118.032787 C112.774194,115.316321 114.969132,113.114754 117.676363,113.114754 C120.386763,113.114754 122.580645,115.316321 122.580645,118.032787" id="Fill-61"></path>
                    <path d="M9.80645161,145.081967 C9.80645161,147.798433 7.61151339,150 4.90111326,150 C2.19493822,150 0,147.798433 0,145.081967 C0,142.365501 2.19493822,140.163934 4.90111326,140.163934 C7.61151339,140.163934 9.80645161,142.365501 9.80645161,145.081967" id="Fill-66"></path>
                    <path d="M39.2258065,145.081967 C39.2258065,147.798433 37.0308682,150 34.3215244,150 C31.6142931,150 29.4193548,147.798433 29.4193548,145.081967 C29.4193548,142.365501 31.6142931,140.163934 34.3215244,140.163934 C37.0308682,140.163934 39.2258065,142.365501 39.2258065,145.081967" id="Fill-68"></path>
                    <path d="M66.1935484,145.081967 C66.1935484,147.798433 63.9981372,150 61.2903226,150 C58.5814514,150 56.3870968,147.798433 56.3870968,145.081967 C56.3870968,142.365501 58.5814514,140.163934 61.2903226,140.163934 C63.9981372,140.163934 66.1935484,142.365501 66.1935484,145.081967" id="Fill-70"></path>
                    <path d="M95.6129032,145.081967 C95.6129032,147.798433 93.4174921,150 90.7075644,150 C87.9997498,150 85.8064516,147.798433 85.8064516,145.081967 C85.8064516,142.365501 87.9997498,140.163934 90.7075644,140.163934 C93.4174921,140.163934 95.6129032,142.365501 95.6129032,145.081967" id="Fill-72"></path>
                    <path d="M122.580645,145.081967 C122.580645,147.798433 120.386763,150 117.676363,150 C114.969132,150 112.774194,147.798433 112.774194,145.081967 C112.774194,142.365501 114.969132,140.163934 117.676363,140.163934 C120.386763,140.163934 122.580645,142.365501 122.580645,145.081967" id="Fill-74"></path>
                    <path d="M152,4.91803279 C152,7.63449898 149.806118,9.83606557 147.095718,9.83606557 C144.388487,9.83606557 142.193548,7.63449898 142.193548,4.91803279 C142.193548,2.20156659 144.388487,0 147.095718,0 C149.806118,0 152,2.20156659 152,4.91803279" id="Fill-9-Copy"></path>
                    <path d="M152,31.9672131 C152,34.6836793 149.806118,36.8852459 147.095718,36.8852459 C144.388487,36.8852459 142.193548,34.6836793 142.193548,31.9672131 C142.193548,29.2518064 144.388487,27.0491803 147.095718,27.0491803 C149.806118,27.0491803 152,29.2518064 152,31.9672131" id="Fill-22-Copy"></path>
                    <path d="M152,62.7055801 C152,66.099473 149.806118,68.852459 147.095718,68.852459 C144.388487,68.852459 142.193548,66.099473 142.193548,62.7055801 C142.193548,59.3103631 144.388487,56.557377 147.095718,56.557377 C149.806118,56.557377 152,59.3103631 152,62.7055801" id="Fill-35-Copy"></path>
                    <path d="M152,89.7534363 C152,93.1486533 149.806118,95.9016393 147.095718,95.9016393 C144.388487,95.9016393 142.193548,93.1486533 142.193548,89.7534363 C142.193548,86.3595434 144.388487,83.6065574 147.095718,83.6065574 C149.806118,83.6065574 152,86.3595434 152,89.7534363" id="Fill-48-Copy"></path>
                    <path d="M152,118.032787 C152,120.748194 149.806118,122.95082 147.095718,122.95082 C144.388487,122.95082 142.193548,120.748194 142.193548,118.032787 C142.193548,115.316321 144.388487,113.114754 147.095718,113.114754 C149.806118,113.114754 152,115.316321 152,118.032787" id="Fill-61-Copy"></path>
                    <path d="M152,145.081967 C152,147.798433 149.806118,150 147.095718,150 C144.388487,150 142.193548,147.798433 142.193548,145.081967 C142.193548,142.365501 144.388487,140.163934 147.095718,140.163934 C149.806118,140.163934 152,142.365501 152,145.081967" id="Fill-74-Copy"></path>
                </g>
            </g>
        </g>
    </g>
</svg>