<?xml version="1.0" encoding="UTF-8"?>
<svg width="85px" height="85px" viewBox="0 0 85 85" version="1.1" xmlns="http://www.w3.org/2000/svg" xmlns:xlink="http://www.w3.org/1999/xlink">
    <!-- Generator: Sketch 55.2 (78181) - https://sketchapp.com -->
    <title>drag</title>
    <desc>Created with Sketch.</desc>
    <g id="Page-1" stroke="none" stroke-width="1" fill="none" fill-rule="evenodd">
        <g id="Home-v1" transform="translate(-541.000000, -3735.000000)">
            <g id="Group-17" transform="translate(418.000000, 3526.000000)">
                <g id="drag" transform="translate(124.000000, 210.000000)">
                    <rect id="Rectangle" fill="#C2D0FF" x="6" y="6" width="70" height="68"></rect>
                    <polygon id="Path" fill="#FF8875" points="80.4444444 48.4444444 36 36 48.4444444 80.4444444 57.3333333 64.4444444 76.8888889 84 84 76.8888889 64.4444444 57.3333333"></polygon>
                    <g id="drag-copy" stroke="#111111" stroke-linecap="square" stroke-width="2">
                        <polyline id="Path" points="0 8.22222222 0 0 8.22222222 0"></polyline>
                        <polyline id="Path" points="8.22222222 68.5185185 0 68.5185185 0 60.2962963"></polyline>
                        <polyline id="Path" points="60.2962963 0 68.5185185 0 68.5185185 8.22222222"></polyline>
                        <path d="M21.9259259,0.685185185 L28.7777778,0.685185185" id="Path"></path>
                        <path d="M41.1111111,0.685185185 L47.962963,0.685185185" id="Path"></path>
                        <path d="M21.9259259,69.2037037 L28.7777778,69.2037037" id="Path"></path>
                        <path d="M0.685185185,21.9259259 L0.685185185,28.7777778" id="Path"></path>
                        <path d="M69.2037037,21.9259259 L69.2037037,28.7777778" id="Path"></path>
                        <path d="M0.685185185,41.1111111 L0.685185185,47.962963" id="Path"></path>
                        <polygon id="Path" points="70.4471879 38.4718793 26.037037 26.037037 38.4718793 70.4471879 47.3539095 54.4595336 66.8943759 74 74 66.8943759 54.4595336 47.3539095"></polygon>
                    </g>
                </g>
            </g>
        </g>
    </g>
</svg>