<?xml version="1.0" encoding="UTF-8"?>
<svg width="47px" height="47px" viewBox="0 0 47 47" version="1.1" xmlns="http://www.w3.org/2000/svg" xmlns:xlink="http://www.w3.org/1999/xlink">
    <!-- Generator: Sketch 55.2 (78181) - https://sketchapp.com -->
    <title>edit</title>
    <desc>Created with Sketch.</desc>
    <defs>
        <path d="M37.2083333,28.7091667 C37.2083333,27.627609 38.085109,26.7508333 39.1666667,26.7508333 C40.2482243,26.7508333 41.125,27.627609 41.125,28.7091667 L41.125,39.1666667 C41.125,42.4113396 38.4946729,45.0416667 35.25,45.0416667 L7.83333333,45.0416667 C4.58866043,45.0416667 1.95833333,42.4113396 1.95833333,39.1666667 L1.95833333,11.75 C1.95833333,8.50532709 4.58866043,5.875 7.83333333,5.875 L18.2908333,5.875 C19.372391,5.875 20.2491667,6.7517757 20.2491667,7.83333333 C20.2491667,8.91489097 19.372391,9.79166667 18.2908333,9.79166667 L7.83333333,9.79166667 C6.7517757,9.79166667 5.875,10.6684424 5.875,11.75 L5.875,39.1666667 C5.875,40.2482243 6.7517757,41.125 7.83333333,41.125 L35.25,41.125 C36.3315576,41.125 37.2083333,40.2482243 37.2083333,39.1666667 L37.2083333,28.7091667 Z M36.6347508,2.53191589 L44.4680841,10.3652492 C45.2328609,11.130026 45.2328609,12.369974 44.4680841,13.1347508 L24.8847508,32.7180841 C24.517492,33.0853429 24.0193823,33.2916667 23.5,33.2916667 L15.6666667,33.2916667 C14.585109,33.2916667 13.7083333,32.414891 13.7083333,31.3333333 L13.7083333,23.5 C13.7083333,22.9806177 13.9146571,22.482508 14.2819159,22.1152492 L33.8652492,2.53191589 C34.630026,1.76713915 35.869974,1.76713915 36.6347508,2.53191589 Z M17.625,24.3111682 L17.625,29.375 L22.6888318,29.375 L40.3138318,11.75 L35.25,6.68616823 L17.625,24.3111682 Z" id="path-1"></path>
    </defs>
    <g id="Page-1" stroke="none" stroke-width="1" fill="none" fill-rule="evenodd">
        <g id="Home-v1" transform="translate(-1314.000000, -4522.000000)">
            <g id="Group-2" transform="translate(290.000000, 4267.000000)">
                <g id="edit" transform="translate(1024.000000, 255.000000)">
                    <mask id="mask-2" fill="white">
                        <use xlink:href="#path-1"></use>
                    </mask>
                    <use id="Combined-Shape" fill="#000000" fill-rule="nonzero" xlink:href="#path-1"></use>
                    <g id="COLOR/-black" mask="url(#mask-2)" fill="#035099">
                        <rect id="Rectangle" x="0" y="0" width="47" height="47"></rect>
                    </g>
                </g>
            </g>
        </g>
    </g>
</svg>