<?xml version="1.0" encoding="UTF-8"?>
<svg width="22px" height="22px" viewBox="0 0 22 22" version="1.1" xmlns="http://www.w3.org/2000/svg" xmlns:xlink="http://www.w3.org/1999/xlink">
    <!-- Generator: Sketch 55.2 (78181) - https://sketchapp.com -->
    <title>mdpi/globe</title>
    <desc>Created with Sketch.</desc>
    <defs>
        <path d="M2.05492878,12 C2.46801932,15.7368747 5.16896977,18.7842108 8.72602666,19.7102549 C7.20509608,17.4230534 6.28142738,14.7763788 6.05270625,12 L2.05492878,12 Z M2.05492878,10 L6.05009108,10 C6.27429644,7.23681286 7.19910201,4.58442252 8.72570821,2.28982801 C5.16880856,3.21597105 2.46800699,6.26323681 2.05492878,10 Z M19.9450712,10 C19.5319807,6.26312529 16.8310302,3.21578917 13.2739733,2.28974509 C14.7949039,4.57694661 15.7185726,7.2236212 15.9472937,10 L19.9450712,10 Z M19.9450712,12 L15.9499089,12 C15.7257036,14.7631871 14.800898,17.4155775 13.2742918,19.710172 C16.8311914,18.7840289 19.531993,15.7367632 19.9450712,12 Z M8.05477268,10 L13.9424085,10 C13.6912106,7.28681689 12.6696691,4.70191092 10.9999781,2.5507682 C9.32399423,4.70963618 8.30106448,7.30264362 8.05477268,10 Z M13.9452273,12 L8.05759154,12 C8.30878935,14.7131831 9.33033095,17.2980891 11.0000219,19.4492318 C12.6760058,17.2903638 13.6989355,14.6973564 13.9452273,12 Z M11,22 C4.92486775,22 0,17.0751322 0,11 C0,4.92486775 4.92486775,0 11,0 C17.0751322,0 22,4.92486775 22,11 C22,17.0751322 17.0751322,22 11,22 Z" id="path-1"></path>
    </defs>
    <g id="Page-1" stroke="none" stroke-width="1" fill="none" fill-rule="evenodd">
        <g id="Pricing-[3]" transform="translate(-421.000000, -52.000000)">
            <g id="Group-21" transform="translate(404.000000, 17.000000)">
                <g id="Group-9" transform="translate(0.000000, 18.000000)">
                    <g id="Group-5">
                        <g id="globe" transform="translate(17.000000, 17.000000)">
                            <mask id="mask-2" fill="white">
                                <use xlink:href="#path-1"></use>
                            </mask>
                            <use id="Combined-Shape" fill="#000000" fill-rule="nonzero" xlink:href="#path-1"></use>
                            <g id="COLOR/-black" mask="url(#mask-2)" fill="#9D9D9D">
                                <g transform="translate(-1.000000, -1.000000)" id="Rectangle">
                                    <rect x="0" y="0" width="24" height="24"></rect>
                                </g>
                            </g>
                        </g>
                    </g>
                </g>
            </g>
        </g>
    </g>
</svg>