<?xml version="1.0" encoding="UTF-8"?>
<svg width="264px" height="256px" viewBox="0 0 264 256" version="1.1" xmlns="http://www.w3.org/2000/svg" xmlns:xlink="http://www.w3.org/1999/xlink">
    <!-- Generator: Sketch 55.2 (78181) - https://sketchapp.com -->
    <title>mdpi/Group</title>
    <desc>Created with Sketch.</desc>
    <g id="Page-1" stroke="none" stroke-width="1" fill="none" fill-rule="evenodd" opacity="0.334635417">
        <g id="Home-v1" transform="translate(-1344.000000, -5379.000000)" fill="#1B8BC8">
            <g id="Group-20" transform="translate(-1.000000, 5178.000000)">
                <g id="Group" transform="translate(1345.000000, 201.000000)">
                    <g id="Group-79">
                        <path d="M7.93548387,4 C7.93548387,6.2093925 6.15931676,8 3.96603244,8 C1.77616711,8 0,6.2093925 0,4 C0,1.7906075 1.77616711,0 3.96603244,0 C6.15931676,0 7.93548387,1.7906075 7.93548387,4" id="Fill-1"></path>
                        <path d="M31.7419355,4 C31.7419355,6.2093925 29.9657684,8 27.7733388,8 C25.5826187,8 23.8064516,6.2093925 23.8064516,4 C23.8064516,1.7906075 25.5826187,0 27.7733388,0 C29.9657684,0 31.7419355,1.7906075 31.7419355,4" id="Fill-3"></path>
                        <path d="M53.5645161,4 C53.5645161,6.2093925 51.7879663,8 49.5967742,8 C47.4047272,8 45.6290323,6.2093925 45.6290323,4 C45.6290323,1.7906075 47.4047272,0 49.5967742,0 C51.7879663,0 53.5645161,1.7906075 53.5645161,4" id="Fill-5"></path>
                        <path d="M77.3709677,4 C77.3709677,6.2093925 75.5944179,8 73.4015159,8 C71.2103238,8 69.4354839,6.2093925 69.4354839,4 C69.4354839,1.7906075 71.2103238,0 73.4015159,0 C75.5944179,0 77.3709677,1.7906075 77.3709677,4" id="Fill-7"></path>
                        <path d="M99.1935484,4 C99.1935484,6.2093925 97.418236,8 95.2249517,8 C93.0342316,8 91.2580645,6.2093925 91.2580645,4 C91.2580645,1.7906075 93.0342316,0 95.2249517,0 C97.418236,0 99.1935484,1.7906075 99.1935484,4" id="Fill-9"></path>
                        <path d="M7.93548387,26 C7.93548387,28.2093925 6.15931676,30 3.96603244,30 C1.77616711,30 0,28.2093925 0,26 C0,23.7914692 1.77616711,22 3.96603244,22 C6.15931676,22 7.93548387,23.7914692 7.93548387,26" id="Fill-14"></path>
                        <path d="M31.7419355,26 C31.7419355,28.2093925 29.9657684,30 27.7733388,30 C25.5826187,30 23.8064516,28.2093925 23.8064516,26 C23.8064516,23.7914692 25.5826187,22 27.7733388,22 C29.9657684,22 31.7419355,23.7914692 31.7419355,26" id="Fill-16"></path>
                        <path d="M53.5645161,26 C53.5645161,28.2093925 51.7879663,30 49.5967742,30 C47.4047272,30 45.6290323,28.2093925 45.6290323,26 C45.6290323,23.7914692 47.4047272,22 49.5967742,22 C51.7879663,22 53.5645161,23.7914692 53.5645161,26" id="Fill-18"></path>
                        <path d="M77.3709677,26 C77.3709677,28.2093925 75.5944179,30 73.4015159,30 C71.2103238,30 69.4354839,28.2093925 69.4354839,26 C69.4354839,23.7914692 71.2103238,22 73.4015159,22 C75.5944179,22 77.3709677,23.7914692 77.3709677,26" id="Fill-20"></path>
                        <path d="M99.1935484,26 C99.1935484,28.2093925 97.418236,30 95.2249517,30 C93.0342316,30 91.2580645,28.2093925 91.2580645,26 C91.2580645,23.7914692 93.0342316,22 95.2249517,22 C97.418236,22 99.1935484,23.7914692 99.1935484,26" id="Fill-22"></path>
                        <path d="M7.93548387,51.0005385 C7.93548387,53.7609047 6.15931676,56 3.96603244,56 C1.77616711,56 0,53.7609047 0,51.0005385 C0,48.2390953 1.77616711,46 3.96603244,46 C6.15931676,46 7.93548387,48.2390953 7.93548387,51.0005385" id="Fill-27"></path>
                        <path d="M31.7419355,51.0005385 C31.7419355,53.7609047 29.9657684,56 27.7733388,56 C25.5826187,56 23.8064516,53.7609047 23.8064516,51.0005385 C23.8064516,48.2390953 25.5826187,46 27.7733388,46 C29.9657684,46 31.7419355,48.2390953 31.7419355,51.0005385" id="Fill-29"></path>
                        <path d="M53.5645161,51.0005385 C53.5645161,53.7609047 51.7879663,56 49.5967742,56 C47.4047272,56 45.6290323,53.7609047 45.6290323,51.0005385 C45.6290323,48.2390953 47.4047272,46 49.5967742,46 C51.7879663,46 53.5645161,48.2390953 53.5645161,51.0005385" id="Fill-31"></path>
                        <path d="M77.3709677,51.0005385 C77.3709677,53.7609047 75.5944179,56 73.4015159,56 C71.2103238,56 69.4354839,53.7609047 69.4354839,51.0005385 C69.4354839,48.2390953 71.2103238,46 73.4015159,46 C75.5944179,46 77.3709677,48.2390953 77.3709677,51.0005385" id="Fill-33"></path>
                        <path d="M99.1935484,51.0005385 C99.1935484,53.7609047 97.418236,56 95.2249517,56 C93.0342316,56 91.2580645,53.7609047 91.2580645,51.0005385 C91.2580645,48.2390953 93.0342316,46 95.2249517,46 C97.418236,46 99.1935484,48.2390953 99.1935484,51.0005385" id="Fill-35"></path>
                        <path d="M7.93548387,72.9994615 C7.93548387,75.7609047 6.15931676,78 3.96603244,78 C1.77616711,78 0,75.7609047 0,72.9994615 C0,70.2390953 1.77616711,68 3.96603244,68 C6.15931676,68 7.93548387,70.2390953 7.93548387,72.9994615" id="Fill-40"></path>
                        <path d="M31.7419355,72.9994615 C31.7419355,75.7609047 29.9657684,78 27.7733388,78 C25.5826187,78 23.8064516,75.7609047 23.8064516,72.9994615 C23.8064516,70.2390953 25.5826187,68 27.7733388,68 C29.9657684,68 31.7419355,70.2390953 31.7419355,72.9994615" id="Fill-42"></path>
                        <path d="M53.5645161,72.9994615 C53.5645161,75.7609047 51.7879663,78 49.5967742,78 C47.4047272,78 45.6290323,75.7609047 45.6290323,72.9994615 C45.6290323,70.2390953 47.4047272,68 49.5967742,68 C51.7879663,68 53.5645161,70.2390953 53.5645161,72.9994615" id="Fill-44"></path>
                        <path d="M77.3709677,72.9994615 C77.3709677,75.7609047 75.5944179,78 73.4015159,78 C71.2103238,78 69.4354839,75.7609047 69.4354839,72.9994615 C69.4354839,70.2390953 71.2103238,68 73.4015159,68 C75.5944179,68 77.3709677,70.2390953 77.3709677,72.9994615" id="Fill-46"></path>
                        <path d="M99.1935484,72.9994615 C99.1935484,75.7609047 97.418236,78 95.2249517,78 C93.0342316,78 91.2580645,75.7609047 91.2580645,72.9994615 C91.2580645,70.2390953 93.0342316,68 95.2249517,68 C97.418236,68 99.1935484,70.2390953 99.1935484,72.9994615" id="Fill-48"></path>
                        <path d="M7.93548387,96 C7.93548387,98.2085308 6.15931676,100 3.96603244,100 C1.77616711,100 0,98.2085308 0,96 C0,93.7906075 1.77616711,92 3.96603244,92 C6.15931676,92 7.93548387,93.7906075 7.93548387,96" id="Fill-53"></path>
                        <path d="M31.7419355,96 C31.7419355,98.2085308 29.9657684,100 27.7733388,100 C25.5826187,100 23.8064516,98.2085308 23.8064516,96 C23.8064516,93.7906075 25.5826187,92 27.7733388,92 C29.9657684,92 31.7419355,93.7906075 31.7419355,96" id="Fill-55"></path>
                        <path d="M53.5645161,96 C53.5645161,98.2085308 51.7879663,100 49.5967742,100 C47.4047272,100 45.6290323,98.2085308 45.6290323,96 C45.6290323,93.7906075 47.4047272,92 49.5967742,92 C51.7879663,92 53.5645161,93.7906075 53.5645161,96" id="Fill-57"></path>
                        <path d="M77.3709677,96 C77.3709677,98.2085308 75.5944179,100 73.4015159,100 C71.2103238,100 69.4354839,98.2085308 69.4354839,96 C69.4354839,93.7906075 71.2103238,92 73.4015159,92 C75.5944179,92 77.3709677,93.7906075 77.3709677,96" id="Fill-59"></path>
                        <path d="M99.1935484,96 C99.1935484,98.2085308 97.418236,100 95.2249517,100 C93.0342316,100 91.2580645,98.2085308 91.2580645,96 C91.2580645,93.7906075 93.0342316,92 95.2249517,92 C97.418236,92 99.1935484,93.7906075 99.1935484,96" id="Fill-61"></path>
                        <path d="M7.93548387,118 C7.93548387,120.209393 6.15931676,122 3.96603244,122 C1.77616711,122 0,120.209393 0,118 C0,115.790607 1.77616711,114 3.96603244,114 C6.15931676,114 7.93548387,115.790607 7.93548387,118" id="Fill-66"></path>
                        <path d="M31.7419355,118 C31.7419355,120.209393 29.9657684,122 27.7733388,122 C25.5826187,122 23.8064516,120.209393 23.8064516,118 C23.8064516,115.790607 25.5826187,114 27.7733388,114 C29.9657684,114 31.7419355,115.790607 31.7419355,118" id="Fill-68"></path>
                        <path d="M53.5645161,118 C53.5645161,120.209393 51.7879663,122 49.5967742,122 C47.4047272,122 45.6290323,120.209393 45.6290323,118 C45.6290323,115.790607 47.4047272,114 49.5967742,114 C51.7879663,114 53.5645161,115.790607 53.5645161,118" id="Fill-70"></path>
                        <path d="M77.3709677,118 C77.3709677,120.209393 75.5944179,122 73.4015159,122 C71.2103238,122 69.4354839,120.209393 69.4354839,118 C69.4354839,115.790607 71.2103238,114 73.4015159,114 C75.5944179,114 77.3709677,115.790607 77.3709677,118" id="Fill-72"></path>
                        <path d="M99.1935484,118 C99.1935484,120.209393 97.418236,122 95.2249517,122 C93.0342316,122 91.2580645,120.209393 91.2580645,118 C91.2580645,115.790607 93.0342316,114 95.2249517,114 C97.418236,114 99.1935484,115.790607 99.1935484,118" id="Fill-74"></path>
                        <path d="M123,4 C123,6.2093925 121.224688,8 119.031403,8 C116.840683,8 115.064516,6.2093925 115.064516,4 C115.064516,1.7906075 116.840683,0 119.031403,0 C121.224688,0 123,1.7906075 123,4" id="Fill-9-Copy"></path>
                        <path d="M123,26 C123,28.2093925 121.224688,30 119.031403,30 C116.840683,30 115.064516,28.2093925 115.064516,26 C115.064516,23.7914692 116.840683,22 119.031403,22 C121.224688,22 123,23.7914692 123,26" id="Fill-22-Copy"></path>
                        <path d="M123,51.0005385 C123,53.7609047 121.224688,56 119.031403,56 C116.840683,56 115.064516,53.7609047 115.064516,51.0005385 C115.064516,48.2390953 116.840683,46 119.031403,46 C121.224688,46 123,48.2390953 123,51.0005385" id="Fill-35-Copy"></path>
                        <path d="M123,72.9994615 C123,75.7609047 121.224688,78 119.031403,78 C116.840683,78 115.064516,75.7609047 115.064516,72.9994615 C115.064516,70.2390953 116.840683,68 119.031403,68 C121.224688,68 123,70.2390953 123,72.9994615" id="Fill-48-Copy"></path>
                        <path d="M123,96 C123,98.2085308 121.224688,100 119.031403,100 C116.840683,100 115.064516,98.2085308 115.064516,96 C115.064516,93.7906075 116.840683,92 119.031403,92 C121.224688,92 123,93.7906075 123,96" id="Fill-61-Copy"></path>
                        <path d="M123,118 C123,120.209393 121.224688,122 119.031403,122 C116.840683,122 115.064516,120.209393 115.064516,118 C115.064516,115.790607 116.840683,114 119.031403,114 C121.224688,114 123,115.790607 123,118" id="Fill-74-Copy"></path>
                    </g>
                    <g id="Group-79-Copy" transform="translate(0.000000, 134.000000)">
                        <path d="M7.93548387,4 C7.93548387,6.2093925 6.15931676,8 3.96603244,8 C1.77616711,8 0,6.2093925 0,4 C0,1.7906075 1.77616711,0 3.96603244,0 C6.15931676,0 7.93548387,1.7906075 7.93548387,4" id="Fill-1"></path>
                        <path d="M31.7419355,4 C31.7419355,6.2093925 29.9657684,8 27.7733388,8 C25.5826187,8 23.8064516,6.2093925 23.8064516,4 C23.8064516,1.7906075 25.5826187,0 27.7733388,0 C29.9657684,0 31.7419355,1.7906075 31.7419355,4" id="Fill-3"></path>
                        <path d="M53.5645161,4 C53.5645161,6.2093925 51.7879663,8 49.5967742,8 C47.4047272,8 45.6290323,6.2093925 45.6290323,4 C45.6290323,1.7906075 47.4047272,0 49.5967742,0 C51.7879663,0 53.5645161,1.7906075 53.5645161,4" id="Fill-5"></path>
                        <path d="M77.3709677,4 C77.3709677,6.2093925 75.5944179,8 73.4015159,8 C71.2103238,8 69.4354839,6.2093925 69.4354839,4 C69.4354839,1.7906075 71.2103238,0 73.4015159,0 C75.5944179,0 77.3709677,1.7906075 77.3709677,4" id="Fill-7"></path>
                        <path d="M99.1935484,4 C99.1935484,6.2093925 97.418236,8 95.2249517,8 C93.0342316,8 91.2580645,6.2093925 91.2580645,4 C91.2580645,1.7906075 93.0342316,0 95.2249517,0 C97.418236,0 99.1935484,1.7906075 99.1935484,4" id="Fill-9"></path>
                        <path d="M7.93548387,26 C7.93548387,28.2093925 6.15931676,30 3.96603244,30 C1.77616711,30 0,28.2093925 0,26 C0,23.7914692 1.77616711,22 3.96603244,22 C6.15931676,22 7.93548387,23.7914692 7.93548387,26" id="Fill-14"></path>
                        <path d="M31.7419355,26 C31.7419355,28.2093925 29.9657684,30 27.7733388,30 C25.5826187,30 23.8064516,28.2093925 23.8064516,26 C23.8064516,23.7914692 25.5826187,22 27.7733388,22 C29.9657684,22 31.7419355,23.7914692 31.7419355,26" id="Fill-16"></path>
                        <path d="M53.5645161,26 C53.5645161,28.2093925 51.7879663,30 49.5967742,30 C47.4047272,30 45.6290323,28.2093925 45.6290323,26 C45.6290323,23.7914692 47.4047272,22 49.5967742,22 C51.7879663,22 53.5645161,23.7914692 53.5645161,26" id="Fill-18"></path>
                        <path d="M77.3709677,26 C77.3709677,28.2093925 75.5944179,30 73.4015159,30 C71.2103238,30 69.4354839,28.2093925 69.4354839,26 C69.4354839,23.7914692 71.2103238,22 73.4015159,22 C75.5944179,22 77.3709677,23.7914692 77.3709677,26" id="Fill-20"></path>
                        <path d="M99.1935484,26 C99.1935484,28.2093925 97.418236,30 95.2249517,30 C93.0342316,30 91.2580645,28.2093925 91.2580645,26 C91.2580645,23.7914692 93.0342316,22 95.2249517,22 C97.418236,22 99.1935484,23.7914692 99.1935484,26" id="Fill-22"></path>
                        <path d="M7.93548387,51.0005385 C7.93548387,53.7609047 6.15931676,56 3.96603244,56 C1.77616711,56 0,53.7609047 0,51.0005385 C0,48.2390953 1.77616711,46 3.96603244,46 C6.15931676,46 7.93548387,48.2390953 7.93548387,51.0005385" id="Fill-27"></path>
                        <path d="M31.7419355,51.0005385 C31.7419355,53.7609047 29.9657684,56 27.7733388,56 C25.5826187,56 23.8064516,53.7609047 23.8064516,51.0005385 C23.8064516,48.2390953 25.5826187,46 27.7733388,46 C29.9657684,46 31.7419355,48.2390953 31.7419355,51.0005385" id="Fill-29"></path>
                        <path d="M53.5645161,51.0005385 C53.5645161,53.7609047 51.7879663,56 49.5967742,56 C47.4047272,56 45.6290323,53.7609047 45.6290323,51.0005385 C45.6290323,48.2390953 47.4047272,46 49.5967742,46 C51.7879663,46 53.5645161,48.2390953 53.5645161,51.0005385" id="Fill-31"></path>
                        <path d="M77.3709677,51.0005385 C77.3709677,53.7609047 75.5944179,56 73.4015159,56 C71.2103238,56 69.4354839,53.7609047 69.4354839,51.0005385 C69.4354839,48.2390953 71.2103238,46 73.4015159,46 C75.5944179,46 77.3709677,48.2390953 77.3709677,51.0005385" id="Fill-33"></path>
                        <path d="M99.1935484,51.0005385 C99.1935484,53.7609047 97.418236,56 95.2249517,56 C93.0342316,56 91.2580645,53.7609047 91.2580645,51.0005385 C91.2580645,48.2390953 93.0342316,46 95.2249517,46 C97.418236,46 99.1935484,48.2390953 99.1935484,51.0005385" id="Fill-35"></path>
                        <path d="M7.93548387,72.9994615 C7.93548387,75.7609047 6.15931676,78 3.96603244,78 C1.77616711,78 0,75.7609047 0,72.9994615 C0,70.2390953 1.77616711,68 3.96603244,68 C6.15931676,68 7.93548387,70.2390953 7.93548387,72.9994615" id="Fill-40"></path>
                        <path d="M31.7419355,72.9994615 C31.7419355,75.7609047 29.9657684,78 27.7733388,78 C25.5826187,78 23.8064516,75.7609047 23.8064516,72.9994615 C23.8064516,70.2390953 25.5826187,68 27.7733388,68 C29.9657684,68 31.7419355,70.2390953 31.7419355,72.9994615" id="Fill-42"></path>
                        <path d="M53.5645161,72.9994615 C53.5645161,75.7609047 51.7879663,78 49.5967742,78 C47.4047272,78 45.6290323,75.7609047 45.6290323,72.9994615 C45.6290323,70.2390953 47.4047272,68 49.5967742,68 C51.7879663,68 53.5645161,70.2390953 53.5645161,72.9994615" id="Fill-44"></path>
                        <path d="M77.3709677,72.9994615 C77.3709677,75.7609047 75.5944179,78 73.4015159,78 C71.2103238,78 69.4354839,75.7609047 69.4354839,72.9994615 C69.4354839,70.2390953 71.2103238,68 73.4015159,68 C75.5944179,68 77.3709677,70.2390953 77.3709677,72.9994615" id="Fill-46"></path>
                        <path d="M99.1935484,72.9994615 C99.1935484,75.7609047 97.418236,78 95.2249517,78 C93.0342316,78 91.2580645,75.7609047 91.2580645,72.9994615 C91.2580645,70.2390953 93.0342316,68 95.2249517,68 C97.418236,68 99.1935484,70.2390953 99.1935484,72.9994615" id="Fill-48"></path>
                        <path d="M7.93548387,96 C7.93548387,98.2085308 6.15931676,100 3.96603244,100 C1.77616711,100 0,98.2085308 0,96 C0,93.7906075 1.77616711,92 3.96603244,92 C6.15931676,92 7.93548387,93.7906075 7.93548387,96" id="Fill-53"></path>
                        <path d="M31.7419355,96 C31.7419355,98.2085308 29.9657684,100 27.7733388,100 C25.5826187,100 23.8064516,98.2085308 23.8064516,96 C23.8064516,93.7906075 25.5826187,92 27.7733388,92 C29.9657684,92 31.7419355,93.7906075 31.7419355,96" id="Fill-55"></path>
                        <path d="M53.5645161,96 C53.5645161,98.2085308 51.7879663,100 49.5967742,100 C47.4047272,100 45.6290323,98.2085308 45.6290323,96 C45.6290323,93.7906075 47.4047272,92 49.5967742,92 C51.7879663,92 53.5645161,93.7906075 53.5645161,96" id="Fill-57"></path>
                        <path d="M77.3709677,96 C77.3709677,98.2085308 75.5944179,100 73.4015159,100 C71.2103238,100 69.4354839,98.2085308 69.4354839,96 C69.4354839,93.7906075 71.2103238,92 73.4015159,92 C75.5944179,92 77.3709677,93.7906075 77.3709677,96" id="Fill-59"></path>
                        <path d="M99.1935484,96 C99.1935484,98.2085308 97.418236,100 95.2249517,100 C93.0342316,100 91.2580645,98.2085308 91.2580645,96 C91.2580645,93.7906075 93.0342316,92 95.2249517,92 C97.418236,92 99.1935484,93.7906075 99.1935484,96" id="Fill-61"></path>
                        <path d="M7.93548387,118 C7.93548387,120.209393 6.15931676,122 3.96603244,122 C1.77616711,122 0,120.209393 0,118 C0,115.790607 1.77616711,114 3.96603244,114 C6.15931676,114 7.93548387,115.790607 7.93548387,118" id="Fill-66"></path>
                        <path d="M31.7419355,118 C31.7419355,120.209393 29.9657684,122 27.7733388,122 C25.5826187,122 23.8064516,120.209393 23.8064516,118 C23.8064516,115.790607 25.5826187,114 27.7733388,114 C29.9657684,114 31.7419355,115.790607 31.7419355,118" id="Fill-68"></path>
                        <path d="M53.5645161,118 C53.5645161,120.209393 51.7879663,122 49.5967742,122 C47.4047272,122 45.6290323,120.209393 45.6290323,118 C45.6290323,115.790607 47.4047272,114 49.5967742,114 C51.7879663,114 53.5645161,115.790607 53.5645161,118" id="Fill-70"></path>
                        <path d="M77.3709677,118 C77.3709677,120.209393 75.5944179,122 73.4015159,122 C71.2103238,122 69.4354839,120.209393 69.4354839,118 C69.4354839,115.790607 71.2103238,114 73.4015159,114 C75.5944179,114 77.3709677,115.790607 77.3709677,118" id="Fill-72"></path>
                        <path d="M99.1935484,118 C99.1935484,120.209393 97.418236,122 95.2249517,122 C93.0342316,122 91.2580645,120.209393 91.2580645,118 C91.2580645,115.790607 93.0342316,114 95.2249517,114 C97.418236,114 99.1935484,115.790607 99.1935484,118" id="Fill-74"></path>
                        <path d="M123,4 C123,6.2093925 121.224688,8 119.031403,8 C116.840683,8 115.064516,6.2093925 115.064516,4 C115.064516,1.7906075 116.840683,0 119.031403,0 C121.224688,0 123,1.7906075 123,4" id="Fill-9-Copy"></path>
                        <path d="M123,26 C123,28.2093925 121.224688,30 119.031403,30 C116.840683,30 115.064516,28.2093925 115.064516,26 C115.064516,23.7914692 116.840683,22 119.031403,22 C121.224688,22 123,23.7914692 123,26" id="Fill-22-Copy"></path>
                        <path d="M123,51.0005385 C123,53.7609047 121.224688,56 119.031403,56 C116.840683,56 115.064516,53.7609047 115.064516,51.0005385 C115.064516,48.2390953 116.840683,46 119.031403,46 C121.224688,46 123,48.2390953 123,51.0005385" id="Fill-35-Copy"></path>
                        <path d="M123,72.9994615 C123,75.7609047 121.224688,78 119.031403,78 C116.840683,78 115.064516,75.7609047 115.064516,72.9994615 C115.064516,70.2390953 116.840683,68 119.031403,68 C121.224688,68 123,70.2390953 123,72.9994615" id="Fill-48-Copy"></path>
                        <path d="M123,96 C123,98.2085308 121.224688,100 119.031403,100 C116.840683,100 115.064516,98.2085308 115.064516,96 C115.064516,93.7906075 116.840683,92 119.031403,92 C121.224688,92 123,93.7906075 123,96" id="Fill-61-Copy"></path>
                        <path d="M123,118 C123,120.209393 121.224688,122 119.031403,122 C116.840683,122 115.064516,120.209393 115.064516,118 C115.064516,115.790607 116.840683,114 119.031403,114 C121.224688,114 123,115.790607 123,118" id="Fill-74-Copy"></path>
                    </g>
                    <g id="Group-79-Copy-3" transform="translate(141.000000, 0.000000)">
                        <path d="M7.93548387,4 C7.93548387,6.2093925 6.15931676,8 3.96603244,8 C1.77616711,8 0,6.2093925 0,4 C0,1.7906075 1.77616711,0 3.96603244,0 C6.15931676,0 7.93548387,1.7906075 7.93548387,4" id="Fill-1"></path>
                        <path d="M31.7419355,4 C31.7419355,6.2093925 29.9657684,8 27.7733388,8 C25.5826187,8 23.8064516,6.2093925 23.8064516,4 C23.8064516,1.7906075 25.5826187,0 27.7733388,0 C29.9657684,0 31.7419355,1.7906075 31.7419355,4" id="Fill-3"></path>
                        <path d="M53.5645161,4 C53.5645161,6.2093925 51.7879663,8 49.5967742,8 C47.4047272,8 45.6290323,6.2093925 45.6290323,4 C45.6290323,1.7906075 47.4047272,0 49.5967742,0 C51.7879663,0 53.5645161,1.7906075 53.5645161,4" id="Fill-5"></path>
                        <path d="M77.3709677,4 C77.3709677,6.2093925 75.5944179,8 73.4015159,8 C71.2103238,8 69.4354839,6.2093925 69.4354839,4 C69.4354839,1.7906075 71.2103238,0 73.4015159,0 C75.5944179,0 77.3709677,1.7906075 77.3709677,4" id="Fill-7"></path>
                        <path d="M99.1935484,4 C99.1935484,6.2093925 97.418236,8 95.2249517,8 C93.0342316,8 91.2580645,6.2093925 91.2580645,4 C91.2580645,1.7906075 93.0342316,0 95.2249517,0 C97.418236,0 99.1935484,1.7906075 99.1935484,4" id="Fill-9"></path>
                        <path d="M7.93548387,26 C7.93548387,28.2093925 6.15931676,30 3.96603244,30 C1.77616711,30 0,28.2093925 0,26 C0,23.7914692 1.77616711,22 3.96603244,22 C6.15931676,22 7.93548387,23.7914692 7.93548387,26" id="Fill-14"></path>
                        <path d="M31.7419355,26 C31.7419355,28.2093925 29.9657684,30 27.7733388,30 C25.5826187,30 23.8064516,28.2093925 23.8064516,26 C23.8064516,23.7914692 25.5826187,22 27.7733388,22 C29.9657684,22 31.7419355,23.7914692 31.7419355,26" id="Fill-16"></path>
                        <path d="M53.5645161,26 C53.5645161,28.2093925 51.7879663,30 49.5967742,30 C47.4047272,30 45.6290323,28.2093925 45.6290323,26 C45.6290323,23.7914692 47.4047272,22 49.5967742,22 C51.7879663,22 53.5645161,23.7914692 53.5645161,26" id="Fill-18"></path>
                        <path d="M77.3709677,26 C77.3709677,28.2093925 75.5944179,30 73.4015159,30 C71.2103238,30 69.4354839,28.2093925 69.4354839,26 C69.4354839,23.7914692 71.2103238,22 73.4015159,22 C75.5944179,22 77.3709677,23.7914692 77.3709677,26" id="Fill-20"></path>
                        <path d="M99.1935484,26 C99.1935484,28.2093925 97.418236,30 95.2249517,30 C93.0342316,30 91.2580645,28.2093925 91.2580645,26 C91.2580645,23.7914692 93.0342316,22 95.2249517,22 C97.418236,22 99.1935484,23.7914692 99.1935484,26" id="Fill-22"></path>
                        <path d="M7.93548387,51.0005385 C7.93548387,53.7609047 6.15931676,56 3.96603244,56 C1.77616711,56 0,53.7609047 0,51.0005385 C0,48.2390953 1.77616711,46 3.96603244,46 C6.15931676,46 7.93548387,48.2390953 7.93548387,51.0005385" id="Fill-27"></path>
                        <path d="M31.7419355,51.0005385 C31.7419355,53.7609047 29.9657684,56 27.7733388,56 C25.5826187,56 23.8064516,53.7609047 23.8064516,51.0005385 C23.8064516,48.2390953 25.5826187,46 27.7733388,46 C29.9657684,46 31.7419355,48.2390953 31.7419355,51.0005385" id="Fill-29"></path>
                        <path d="M53.5645161,51.0005385 C53.5645161,53.7609047 51.7879663,56 49.5967742,56 C47.4047272,56 45.6290323,53.7609047 45.6290323,51.0005385 C45.6290323,48.2390953 47.4047272,46 49.5967742,46 C51.7879663,46 53.5645161,48.2390953 53.5645161,51.0005385" id="Fill-31"></path>
                        <path d="M77.3709677,51.0005385 C77.3709677,53.7609047 75.5944179,56 73.4015159,56 C71.2103238,56 69.4354839,53.7609047 69.4354839,51.0005385 C69.4354839,48.2390953 71.2103238,46 73.4015159,46 C75.5944179,46 77.3709677,48.2390953 77.3709677,51.0005385" id="Fill-33"></path>
                        <path d="M99.1935484,51.0005385 C99.1935484,53.7609047 97.418236,56 95.2249517,56 C93.0342316,56 91.2580645,53.7609047 91.2580645,51.0005385 C91.2580645,48.2390953 93.0342316,46 95.2249517,46 C97.418236,46 99.1935484,48.2390953 99.1935484,51.0005385" id="Fill-35"></path>
                        <path d="M7.93548387,72.9994615 C7.93548387,75.7609047 6.15931676,78 3.96603244,78 C1.77616711,78 0,75.7609047 0,72.9994615 C0,70.2390953 1.77616711,68 3.96603244,68 C6.15931676,68 7.93548387,70.2390953 7.93548387,72.9994615" id="Fill-40"></path>
                        <path d="M31.7419355,72.9994615 C31.7419355,75.7609047 29.9657684,78 27.7733388,78 C25.5826187,78 23.8064516,75.7609047 23.8064516,72.9994615 C23.8064516,70.2390953 25.5826187,68 27.7733388,68 C29.9657684,68 31.7419355,70.2390953 31.7419355,72.9994615" id="Fill-42"></path>
                        <path d="M53.5645161,72.9994615 C53.5645161,75.7609047 51.7879663,78 49.5967742,78 C47.4047272,78 45.6290323,75.7609047 45.6290323,72.9994615 C45.6290323,70.2390953 47.4047272,68 49.5967742,68 C51.7879663,68 53.5645161,70.2390953 53.5645161,72.9994615" id="Fill-44"></path>
                        <path d="M77.3709677,72.9994615 C77.3709677,75.7609047 75.5944179,78 73.4015159,78 C71.2103238,78 69.4354839,75.7609047 69.4354839,72.9994615 C69.4354839,70.2390953 71.2103238,68 73.4015159,68 C75.5944179,68 77.3709677,70.2390953 77.3709677,72.9994615" id="Fill-46"></path>
                        <path d="M99.1935484,72.9994615 C99.1935484,75.7609047 97.418236,78 95.2249517,78 C93.0342316,78 91.2580645,75.7609047 91.2580645,72.9994615 C91.2580645,70.2390953 93.0342316,68 95.2249517,68 C97.418236,68 99.1935484,70.2390953 99.1935484,72.9994615" id="Fill-48"></path>
                        <path d="M7.93548387,96 C7.93548387,98.2085308 6.15931676,100 3.96603244,100 C1.77616711,100 0,98.2085308 0,96 C0,93.7906075 1.77616711,92 3.96603244,92 C6.15931676,92 7.93548387,93.7906075 7.93548387,96" id="Fill-53"></path>
                        <path d="M31.7419355,96 C31.7419355,98.2085308 29.9657684,100 27.7733388,100 C25.5826187,100 23.8064516,98.2085308 23.8064516,96 C23.8064516,93.7906075 25.5826187,92 27.7733388,92 C29.9657684,92 31.7419355,93.7906075 31.7419355,96" id="Fill-55"></path>
                        <path d="M53.5645161,96 C53.5645161,98.2085308 51.7879663,100 49.5967742,100 C47.4047272,100 45.6290323,98.2085308 45.6290323,96 C45.6290323,93.7906075 47.4047272,92 49.5967742,92 C51.7879663,92 53.5645161,93.7906075 53.5645161,96" id="Fill-57"></path>
                        <path d="M77.3709677,96 C77.3709677,98.2085308 75.5944179,100 73.4015159,100 C71.2103238,100 69.4354839,98.2085308 69.4354839,96 C69.4354839,93.7906075 71.2103238,92 73.4015159,92 C75.5944179,92 77.3709677,93.7906075 77.3709677,96" id="Fill-59"></path>
                        <path d="M99.1935484,96 C99.1935484,98.2085308 97.418236,100 95.2249517,100 C93.0342316,100 91.2580645,98.2085308 91.2580645,96 C91.2580645,93.7906075 93.0342316,92 95.2249517,92 C97.418236,92 99.1935484,93.7906075 99.1935484,96" id="Fill-61"></path>
                        <path d="M7.93548387,118 C7.93548387,120.209393 6.15931676,122 3.96603244,122 C1.77616711,122 0,120.209393 0,118 C0,115.790607 1.77616711,114 3.96603244,114 C6.15931676,114 7.93548387,115.790607 7.93548387,118" id="Fill-66"></path>
                        <path d="M31.7419355,118 C31.7419355,120.209393 29.9657684,122 27.7733388,122 C25.5826187,122 23.8064516,120.209393 23.8064516,118 C23.8064516,115.790607 25.5826187,114 27.7733388,114 C29.9657684,114 31.7419355,115.790607 31.7419355,118" id="Fill-68"></path>
                        <path d="M53.5645161,118 C53.5645161,120.209393 51.7879663,122 49.5967742,122 C47.4047272,122 45.6290323,120.209393 45.6290323,118 C45.6290323,115.790607 47.4047272,114 49.5967742,114 C51.7879663,114 53.5645161,115.790607 53.5645161,118" id="Fill-70"></path>
                        <path d="M77.3709677,118 C77.3709677,120.209393 75.5944179,122 73.4015159,122 C71.2103238,122 69.4354839,120.209393 69.4354839,118 C69.4354839,115.790607 71.2103238,114 73.4015159,114 C75.5944179,114 77.3709677,115.790607 77.3709677,118" id="Fill-72"></path>
                        <path d="M99.1935484,118 C99.1935484,120.209393 97.418236,122 95.2249517,122 C93.0342316,122 91.2580645,120.209393 91.2580645,118 C91.2580645,115.790607 93.0342316,114 95.2249517,114 C97.418236,114 99.1935484,115.790607 99.1935484,118" id="Fill-74"></path>
                        <path d="M123,4 C123,6.2093925 121.224688,8 119.031403,8 C116.840683,8 115.064516,6.2093925 115.064516,4 C115.064516,1.7906075 116.840683,0 119.031403,0 C121.224688,0 123,1.7906075 123,4" id="Fill-9-Copy"></path>
                        <path d="M123,26 C123,28.2093925 121.224688,30 119.031403,30 C116.840683,30 115.064516,28.2093925 115.064516,26 C115.064516,23.7914692 116.840683,22 119.031403,22 C121.224688,22 123,23.7914692 123,26" id="Fill-22-Copy"></path>
                        <path d="M123,51.0005385 C123,53.7609047 121.224688,56 119.031403,56 C116.840683,56 115.064516,53.7609047 115.064516,51.0005385 C115.064516,48.2390953 116.840683,46 119.031403,46 C121.224688,46 123,48.2390953 123,51.0005385" id="Fill-35-Copy"></path>
                        <path d="M123,72.9994615 C123,75.7609047 121.224688,78 119.031403,78 C116.840683,78 115.064516,75.7609047 115.064516,72.9994615 C115.064516,70.2390953 116.840683,68 119.031403,68 C121.224688,68 123,70.2390953 123,72.9994615" id="Fill-48-Copy"></path>
                        <path d="M123,96 C123,98.2085308 121.224688,100 119.031403,100 C116.840683,100 115.064516,98.2085308 115.064516,96 C115.064516,93.7906075 116.840683,92 119.031403,92 C121.224688,92 123,93.7906075 123,96" id="Fill-61-Copy"></path>
                        <path d="M123,118 C123,120.209393 121.224688,122 119.031403,122 C116.840683,122 115.064516,120.209393 115.064516,118 C115.064516,115.790607 116.840683,114 119.031403,114 C121.224688,114 123,115.790607 123,118" id="Fill-74-Copy"></path>
                    </g>
                    <g id="Group-79-Copy-2" transform="translate(141.000000, 134.000000)">
                        <path d="M7.93548387,4 C7.93548387,6.2093925 6.15931676,8 3.96603244,8 C1.77616711,8 0,6.2093925 0,4 C0,1.7906075 1.77616711,0 3.96603244,0 C6.15931676,0 7.93548387,1.7906075 7.93548387,4" id="Fill-1"></path>
                        <path d="M31.7419355,4 C31.7419355,6.2093925 29.9657684,8 27.7733388,8 C25.5826187,8 23.8064516,6.2093925 23.8064516,4 C23.8064516,1.7906075 25.5826187,0 27.7733388,0 C29.9657684,0 31.7419355,1.7906075 31.7419355,4" id="Fill-3"></path>
                        <path d="M53.5645161,4 C53.5645161,6.2093925 51.7879663,8 49.5967742,8 C47.4047272,8 45.6290323,6.2093925 45.6290323,4 C45.6290323,1.7906075 47.4047272,0 49.5967742,0 C51.7879663,0 53.5645161,1.7906075 53.5645161,4" id="Fill-5"></path>
                        <path d="M77.3709677,4 C77.3709677,6.2093925 75.5944179,8 73.4015159,8 C71.2103238,8 69.4354839,6.2093925 69.4354839,4 C69.4354839,1.7906075 71.2103238,0 73.4015159,0 C75.5944179,0 77.3709677,1.7906075 77.3709677,4" id="Fill-7"></path>
                        <path d="M99.1935484,4 C99.1935484,6.2093925 97.418236,8 95.2249517,8 C93.0342316,8 91.2580645,6.2093925 91.2580645,4 C91.2580645,1.7906075 93.0342316,0 95.2249517,0 C97.418236,0 99.1935484,1.7906075 99.1935484,4" id="Fill-9"></path>
                        <path d="M7.93548387,26 C7.93548387,28.2093925 6.15931676,30 3.96603244,30 C1.77616711,30 0,28.2093925 0,26 C0,23.7914692 1.77616711,22 3.96603244,22 C6.15931676,22 7.93548387,23.7914692 7.93548387,26" id="Fill-14"></path>
                        <path d="M31.7419355,26 C31.7419355,28.2093925 29.9657684,30 27.7733388,30 C25.5826187,30 23.8064516,28.2093925 23.8064516,26 C23.8064516,23.7914692 25.5826187,22 27.7733388,22 C29.9657684,22 31.7419355,23.7914692 31.7419355,26" id="Fill-16"></path>
                        <path d="M53.5645161,26 C53.5645161,28.2093925 51.7879663,30 49.5967742,30 C47.4047272,30 45.6290323,28.2093925 45.6290323,26 C45.6290323,23.7914692 47.4047272,22 49.5967742,22 C51.7879663,22 53.5645161,23.7914692 53.5645161,26" id="Fill-18"></path>
                        <path d="M77.3709677,26 C77.3709677,28.2093925 75.5944179,30 73.4015159,30 C71.2103238,30 69.4354839,28.2093925 69.4354839,26 C69.4354839,23.7914692 71.2103238,22 73.4015159,22 C75.5944179,22 77.3709677,23.7914692 77.3709677,26" id="Fill-20"></path>
                        <path d="M99.1935484,26 C99.1935484,28.2093925 97.418236,30 95.2249517,30 C93.0342316,30 91.2580645,28.2093925 91.2580645,26 C91.2580645,23.7914692 93.0342316,22 95.2249517,22 C97.418236,22 99.1935484,23.7914692 99.1935484,26" id="Fill-22"></path>
                        <path d="M7.93548387,51.0005385 C7.93548387,53.7609047 6.15931676,56 3.96603244,56 C1.77616711,56 0,53.7609047 0,51.0005385 C0,48.2390953 1.77616711,46 3.96603244,46 C6.15931676,46 7.93548387,48.2390953 7.93548387,51.0005385" id="Fill-27"></path>
                        <path d="M31.7419355,51.0005385 C31.7419355,53.7609047 29.9657684,56 27.7733388,56 C25.5826187,56 23.8064516,53.7609047 23.8064516,51.0005385 C23.8064516,48.2390953 25.5826187,46 27.7733388,46 C29.9657684,46 31.7419355,48.2390953 31.7419355,51.0005385" id="Fill-29"></path>
                        <path d="M53.5645161,51.0005385 C53.5645161,53.7609047 51.7879663,56 49.5967742,56 C47.4047272,56 45.6290323,53.7609047 45.6290323,51.0005385 C45.6290323,48.2390953 47.4047272,46 49.5967742,46 C51.7879663,46 53.5645161,48.2390953 53.5645161,51.0005385" id="Fill-31"></path>
                        <path d="M77.3709677,51.0005385 C77.3709677,53.7609047 75.5944179,56 73.4015159,56 C71.2103238,56 69.4354839,53.7609047 69.4354839,51.0005385 C69.4354839,48.2390953 71.2103238,46 73.4015159,46 C75.5944179,46 77.3709677,48.2390953 77.3709677,51.0005385" id="Fill-33"></path>
                        <path d="M99.1935484,51.0005385 C99.1935484,53.7609047 97.418236,56 95.2249517,56 C93.0342316,56 91.2580645,53.7609047 91.2580645,51.0005385 C91.2580645,48.2390953 93.0342316,46 95.2249517,46 C97.418236,46 99.1935484,48.2390953 99.1935484,51.0005385" id="Fill-35"></path>
                        <path d="M7.93548387,72.9994615 C7.93548387,75.7609047 6.15931676,78 3.96603244,78 C1.77616711,78 0,75.7609047 0,72.9994615 C0,70.2390953 1.77616711,68 3.96603244,68 C6.15931676,68 7.93548387,70.2390953 7.93548387,72.9994615" id="Fill-40"></path>
                        <path d="M31.7419355,72.9994615 C31.7419355,75.7609047 29.9657684,78 27.7733388,78 C25.5826187,78 23.8064516,75.7609047 23.8064516,72.9994615 C23.8064516,70.2390953 25.5826187,68 27.7733388,68 C29.9657684,68 31.7419355,70.2390953 31.7419355,72.9994615" id="Fill-42"></path>
                        <path d="M53.5645161,72.9994615 C53.5645161,75.7609047 51.7879663,78 49.5967742,78 C47.4047272,78 45.6290323,75.7609047 45.6290323,72.9994615 C45.6290323,70.2390953 47.4047272,68 49.5967742,68 C51.7879663,68 53.5645161,70.2390953 53.5645161,72.9994615" id="Fill-44"></path>
                        <path d="M77.3709677,72.9994615 C77.3709677,75.7609047 75.5944179,78 73.4015159,78 C71.2103238,78 69.4354839,75.7609047 69.4354839,72.9994615 C69.4354839,70.2390953 71.2103238,68 73.4015159,68 C75.5944179,68 77.3709677,70.2390953 77.3709677,72.9994615" id="Fill-46"></path>
                        <path d="M99.1935484,72.9994615 C99.1935484,75.7609047 97.418236,78 95.2249517,78 C93.0342316,78 91.2580645,75.7609047 91.2580645,72.9994615 C91.2580645,70.2390953 93.0342316,68 95.2249517,68 C97.418236,68 99.1935484,70.2390953 99.1935484,72.9994615" id="Fill-48"></path>
                        <path d="M7.93548387,96 C7.93548387,98.2085308 6.15931676,100 3.96603244,100 C1.77616711,100 0,98.2085308 0,96 C0,93.7906075 1.77616711,92 3.96603244,92 C6.15931676,92 7.93548387,93.7906075 7.93548387,96" id="Fill-53"></path>
                        <path d="M31.7419355,96 C31.7419355,98.2085308 29.9657684,100 27.7733388,100 C25.5826187,100 23.8064516,98.2085308 23.8064516,96 C23.8064516,93.7906075 25.5826187,92 27.7733388,92 C29.9657684,92 31.7419355,93.7906075 31.7419355,96" id="Fill-55"></path>
                        <path d="M53.5645161,96 C53.5645161,98.2085308 51.7879663,100 49.5967742,100 C47.4047272,100 45.6290323,98.2085308 45.6290323,96 C45.6290323,93.7906075 47.4047272,92 49.5967742,92 C51.7879663,92 53.5645161,93.7906075 53.5645161,96" id="Fill-57"></path>
                        <path d="M77.3709677,96 C77.3709677,98.2085308 75.5944179,100 73.4015159,100 C71.2103238,100 69.4354839,98.2085308 69.4354839,96 C69.4354839,93.7906075 71.2103238,92 73.4015159,92 C75.5944179,92 77.3709677,93.7906075 77.3709677,96" id="Fill-59"></path>
                        <path d="M99.1935484,96 C99.1935484,98.2085308 97.418236,100 95.2249517,100 C93.0342316,100 91.2580645,98.2085308 91.2580645,96 C91.2580645,93.7906075 93.0342316,92 95.2249517,92 C97.418236,92 99.1935484,93.7906075 99.1935484,96" id="Fill-61"></path>
                        <path d="M7.93548387,118 C7.93548387,120.209393 6.15931676,122 3.96603244,122 C1.77616711,122 0,120.209393 0,118 C0,115.790607 1.77616711,114 3.96603244,114 C6.15931676,114 7.93548387,115.790607 7.93548387,118" id="Fill-66"></path>
                        <path d="M31.7419355,118 C31.7419355,120.209393 29.9657684,122 27.7733388,122 C25.5826187,122 23.8064516,120.209393 23.8064516,118 C23.8064516,115.790607 25.5826187,114 27.7733388,114 C29.9657684,114 31.7419355,115.790607 31.7419355,118" id="Fill-68"></path>
                        <path d="M53.5645161,118 C53.5645161,120.209393 51.7879663,122 49.5967742,122 C47.4047272,122 45.6290323,120.209393 45.6290323,118 C45.6290323,115.790607 47.4047272,114 49.5967742,114 C51.7879663,114 53.5645161,115.790607 53.5645161,118" id="Fill-70"></path>
                        <path d="M77.3709677,118 C77.3709677,120.209393 75.5944179,122 73.4015159,122 C71.2103238,122 69.4354839,120.209393 69.4354839,118 C69.4354839,115.790607 71.2103238,114 73.4015159,114 C75.5944179,114 77.3709677,115.790607 77.3709677,118" id="Fill-72"></path>
                        <path d="M99.1935484,118 C99.1935484,120.209393 97.418236,122 95.2249517,122 C93.0342316,122 91.2580645,120.209393 91.2580645,118 C91.2580645,115.790607 93.0342316,114 95.2249517,114 C97.418236,114 99.1935484,115.790607 99.1935484,118" id="Fill-74"></path>
                        <path d="M123,4 C123,6.2093925 121.224688,8 119.031403,8 C116.840683,8 115.064516,6.2093925 115.064516,4 C115.064516,1.7906075 116.840683,0 119.031403,0 C121.224688,0 123,1.7906075 123,4" id="Fill-9-Copy"></path>
                        <path d="M123,26 C123,28.2093925 121.224688,30 119.031403,30 C116.840683,30 115.064516,28.2093925 115.064516,26 C115.064516,23.7914692 116.840683,22 119.031403,22 C121.224688,22 123,23.7914692 123,26" id="Fill-22-Copy"></path>
                        <path d="M123,51.0005385 C123,53.7609047 121.224688,56 119.031403,56 C116.840683,56 115.064516,53.7609047 115.064516,51.0005385 C115.064516,48.2390953 116.840683,46 119.031403,46 C121.224688,46 123,48.2390953 123,51.0005385" id="Fill-35-Copy"></path>
                        <path d="M123,72.9994615 C123,75.7609047 121.224688,78 119.031403,78 C116.840683,78 115.064516,75.7609047 115.064516,72.9994615 C115.064516,70.2390953 116.840683,68 119.031403,68 C121.224688,68 123,70.2390953 123,72.9994615" id="Fill-48-Copy"></path>
                        <path d="M123,96 C123,98.2085308 121.224688,100 119.031403,100 C116.840683,100 115.064516,98.2085308 115.064516,96 C115.064516,93.7906075 116.840683,92 119.031403,92 C121.224688,92 123,93.7906075 123,96" id="Fill-61-Copy"></path>
                        <path d="M123,118 C123,120.209393 121.224688,122 119.031403,122 C116.840683,122 115.064516,120.209393 115.064516,118 C115.064516,115.790607 116.840683,114 119.031403,114 C121.224688,114 123,115.790607 123,118" id="Fill-74-Copy"></path>
                    </g>
                </g>
            </g>
        </g>
    </g>
</svg>