<?xml version="1.0" encoding="UTF-8"?>
<svg width="161px" height="76px" viewBox="0 0 161 76" version="1.1" xmlns="http://www.w3.org/2000/svg" xmlns:xlink="http://www.w3.org/1999/xlink">
    <!-- Generator: Sketch 55.2 (78181) - https://sketchapp.com -->
    <title>Group 24</title>
    <desc>Created with Sketch.</desc>
    <defs>
        <linearGradient x1="37.9783394%" y1="80.4820215%" x2="63.1768953%" y2="15.5683749%" id="linearGradient-1">
            <stop stop-color="#0FA5D1" offset="0%"></stop>
            <stop stop-color="#0FA5D1" stop-opacity="0" offset="100%"></stop>
        </linearGradient>
        <linearGradient x1="890.824838%" y1="19.6562836%" x2="865.894347%" y2="70.0053706%" id="linearGradient-2">
            <stop stop-color="#0FA5D1" offset="0%"></stop>
            <stop stop-color="#0FA5D1" stop-opacity="0" offset="100%"></stop>
        </linearGradient>
    </defs>
    <g id="Page-1" stroke="none" stroke-width="1" fill="none" fill-rule="evenodd">
        <g id="Homepage" transform="translate(-1384.000000, -26.000000)">
            <g id="Group-21" transform="translate(374.000000, 28.000000)">
                <g id="Group-24" transform="translate(1010.000000, 0.000000)">
                    <text id="ُ" transform="translate(25.182389, 31.071070) rotate(-39.000000) translate(-25.182389, -31.071070) " font-family="AraHamahAlHorra-Regular, Ara Hamah AlHorra" font-size="50" font-weight="normal" line-spacing="75" fill="#2C2E30">
                        <tspan x="23.1823887" y="36.5710696">ُ</tspan>
                    </text>
                    <g id="Asset-4" transform="translate(10.000000, 29.760368)" fill-rule="nonzero">
                        <path d="M87.102742,15.2608398 C87.4496508,17.1692614 88.4302936,18.9087846 89.8894774,20.2041188 C91.0807227,21.2929296 92.4269433,22.2031951 93.8852085,22.9058868 L93.9819282,22.9537057 C95.1424533,23.4620922 96.3359599,23.8934185 97.5545108,24.244816 C98.2134135,24.4360916 98.9085861,24.6273672 99.6279386,24.788756 L99.7004783,24.788756 C100.159897,24.9023259 100.63745,25.0039411 101.127093,25.1055563 C103.997285,25.6789704 106.900269,26.0782071 109.819773,26.3010288 L109.946718,26.3010288 C112.322395,26.4982818 114.915691,26.617829 117.654066,26.665648 C117.369952,27.2633842 117.103973,27.8611205 116.850084,28.3691963 C116.390665,29.3315517 115.919157,30.2341335 115.453694,31.0769417 C112.068505,37.1798291 108.634957,40.1505784 105.00797,40.1505784 C102.904317,40.1505784 101.489792,39.5050232 100.776485,38.2437996 C99.8395129,36.5163418 99.8757827,34.3585138 101.175453,31.0709643 C101.495163,30.4292745 101.44206,29.6672957 101.036354,29.0750364 C100.630649,28.482777 99.9347424,28.1513314 99.2134959,28.2068472 C98.4922493,28.2623631 97.8565963,28.6963017 97.5484658,29.3435065 L97.4215212,29.6961709 C95.9586363,33.8026191 95.6805673,37.1200554 97.3308466,40.0489632 C98.3343131,41.842172 100.431921,44 104.99588,44 C112.044326,44 116.753364,37.2037385 119.866528,31.0470549 C120.307812,30.1803373 120.712825,29.3255744 121.075524,28.5066757 C121.371728,27.8611205 121.680022,27.1976332 121.964136,26.5042592 C122.719759,26.4564403 123.469336,26.3966666 124.182643,26.3249383 C142.885809,24.5795483 148.592269,15.7808703 149.922164,13.138876 C151.457589,10.0426021 151.348779,6.8745998 149.619915,4.45376788 C147.111249,0.951033293 141.761442,-0.51939795 134.507468,0.29950075 C131.390281,0.691101968 128.340479,1.49528537 125.439999,2.69044586 C124.750871,2.95344982 124.031519,3.25231796 123.300077,3.58107291 C122.919243,3.7603938 122.538409,3.93373732 122.16362,4.11903556 C121.456358,4.45974524 120.74305,4.82436437 120.035788,5.21289295 C119.739584,5.37428175 119.43129,5.5416479 119.141131,5.71499142 L118.639398,6.0078822 L118.458048,6.11547473 L118.458048,6.11547473 C117.88982,6.45618441 117.394132,6.76102991 116.928669,7.05989805 L116.221406,7.53210971 L116.154911,7.57395125 L115.628998,7.93259301 C115.278389,8.17168753 114.933826,8.4167594 114.589262,8.66183127 C114.244698,8.90690315 113.785279,9.25956755 113.380266,9.56441305 C113.132422,9.7497113 112.896668,9.92903218 112.660913,10.1203078 C112.425159,10.3115834 112.201495,10.4909043 111.977831,10.6762025 C111.754167,10.8615008 111.536547,11.0408217 111.294748,11.244052 C111.052949,11.4472823 110.841375,11.6266032 110.623755,11.8417883 C109.976943,12.4036604 109.360355,12.9655325 108.810262,13.5154498 C108.514058,13.7904085 108.235989,14.0713446 107.94583,14.3522806 C107.8612,14.4419411 107.770525,14.5375789 107.679851,14.621262 L107.419917,14.8902433 C107.208342,15.1054283 107.002813,15.314636 106.815419,15.5298211 C106.628024,15.7450062 106.410405,15.9601912 106.210921,16.1813536 L105.672918,16.7252937 L105.594333,16.8149541 C105.400894,17.0420939 105.207454,17.2572789 104.989835,17.4844187 C104.772216,17.7115585 104.627136,17.9028341 104.439742,18.1299739 L104.379292,18.2076796 C104.203988,18.41091 104.040773,18.6141403 103.871514,18.8054159 L103.327466,19.49879 L103.327466,19.5406315 C103.152161,19.7617939 102.982902,19.9889337 102.813643,20.2160735 L102.650428,20.4372359 L102.330044,20.8616287 C102.320847,20.8813109 102.30861,20.8994597 102.293774,20.915425 C102.209145,21.0289949 102.13056,21.1485421 102.039885,21.2680894 L102.039885,21.2680894 L101.991525,21.2680894 L101.991525,21.3039535 L101.912941,21.3039535 C101.308443,21.2083157 100.703945,21.1246327 100.147807,21.0110628 L99.9180976,20.9632439 C99.3992629,20.863528 98.8881982,20.7277032 98.3887179,20.5567832 C94.0000631,19.0146236 91.3765422,16.9105919 91.0017535,14.621262 C90.6874146,12.7324153 91.9326803,10.5447005 94.4171667,8.64389918 C98.1106488,5.79269714 104.089133,3.95764677 109.735144,3.95764677 C110.418226,3.95764677 111.101309,3.95764677 111.784391,4.03535248 L112.002011,4.03535248 C113.049424,4.02493024 113.913712,3.22197504 113.989462,2.18893708 C114.065213,1.15589911 113.327107,0.238057859 112.29217,0.0783383277 L112.002011,0.0783383277 L112.002011,0.0783383277 C104.891516,-0.426877421 97.824017,1.52304249 92.00522,5.59544417 C88.2150182,8.2553706 86.5526489,11.9434034 87.102742,15.2608398 Z M106.362045,22.0212371 C106.730789,21.5430481 107.111623,21.064859 107.504546,20.5986247 L107.595221,20.4910322 C107.643581,20.4252812 107.691941,20.3714849 107.746345,20.305734 L107.90956,20.108481 C108.072774,19.9172054 108.229944,19.7319071 108.399203,19.5466089 C108.568463,19.3613106 108.653092,19.2537181 108.792127,19.104284 C109.18505,18.6679366 109.571929,18.2435438 110.001123,17.8251284 C110.140157,17.6816717 110.273147,17.538215 110.424271,17.3947583 L110.424271,17.3947583 C111.451918,16.3427424 112.540014,15.3265908 113.65229,14.3761901 L114.220518,13.9039784 C114.401867,13.748567 114.589262,13.5991329 114.788746,13.4377441 L115.332794,13.0013966 C115.725718,12.6905738 116.130731,12.4036604 116.54179,12.0868601 L117.146288,11.65649 C117.920045,11.1005953 118.730072,10.5566553 119.564279,10.0306473 L119.842348,9.86328119 L119.987428,9.77362075 L120.440801,9.49866206 L120.591926,9.40302426 L121.504718,8.87701633 L121.655842,8.79333325 L122.060856,8.57217083 L122.665354,8.24939324 C123.064322,8.04018554 123.463291,7.84293257 123.87435,7.65165696 L123.940844,7.65165696 C125.14984,7.05392069 126.443466,6.5219354 127.694776,6.06167847 C130.022959,5.13959328 132.457339,4.50518167 134.942706,4.17283183 C140.618941,3.52129929 144.796022,4.45376788 146.428166,6.71321101 C147.564622,8.29721214 147.032664,10.1621493 146.428166,11.4472823 C145.080136,14.1729598 142.027422,16.7850673 137.826161,18.7934612 C134.000721,20.6464241 129.890652,21.8583811 125.663663,22.3798788 C124.297498,22.5651771 122.822523,22.7026564 121.293143,22.7923169 L120.604016,22.8281811 C119.195536,22.8879547 117.774966,22.9118641 116.293946,22.8819773 L115.042635,22.8461131 L114.546947,22.8461131 L113.483031,22.7026564 L113.198917,22.7026564 C112.757633,22.6727696 112.310305,22.6488602 111.856931,22.6070186 L110.611666,22.5054035 L110.575396,22.5054035 C110.351731,22.5054035 110.128067,22.4695465 109.898358,22.4396525 C109.535659,22.4396525 109.166916,22.3679241 108.810262,22.3260826 L108.713542,22.3260826 L108.532193,22.3260826 L108.314573,22.3260826 L108.000235,22.2902184 L107.438052,22.2244674 L107.389692,22.2244674 L106.362045,22.0212371 Z" id="Shape" fill="#15BEF0"></path>
                        <path d="M110,16.7406569 L110,16.7406569 L109.601444,17.2298981 C109.21444,17.7055493 108.838989,18.1879955 108.446209,18.6840317 L108.070758,19.186863 C107.909025,19.3975085 107.758845,19.608154 107.602888,19.8255946 L107.446931,20.0498301 L107.302527,20.2604757 L107.215884,20.382786 C106.840433,20.9127973 106.476534,21.4563986 106.124188,22 L102,21.198188 L102.242599,20.797282 L102.277256,20.7429219 L102.577617,20.2536806 L102.73935,20.002265 L103.224549,19.2344281 L103.259206,19.186863 C103.432491,18.9218573 103.6,18.6636467 103.779061,18.405436 C103.958123,18.1472254 104.096751,17.9297848 104.26426,17.7259343 L104.322022,17.6375991 C104.501083,17.3793884 104.668592,17.1415629 104.847653,16.9037373 C105.026715,16.6659117 105.211552,16.400906 105.425271,16.1426954 L105.465704,16 L110,16.7406569 Z" id="Path" fill="url(#linearGradient-1)"></path>
                        <path d="M123,27 C122.675626,27.7697368 122.351251,28.4934211 122.046339,29.2039474 C121.637627,30.1052632 121.202966,31.0460526 120.748842,32 L116,32 C116.499537,31.0723684 117.005561,30.0789474 117.49861,29.0197368 C117.771084,28.4473684 118.056534,27.8289474 118.361446,27.1447368 L123,27 Z" id="Path" fill="url(#linearGradient-2)"></path>
                        <path d="M43,8 C41.9081089,8 41.0178998,8.78465463 41,9.76315016 L41,26.207464 C41,27.1974543 41.8954305,28 43,28 C44.1045695,28 45,27.1974543 45,26.207464 L45,9.78665883 C44.9963868,8.79896449 44.1020137,8 43,8 Z" id="Path" fill="#093266"></path>
                        <path d="M73.426092,8.60482115 C73.0562053,8.21628667 72.5376454,7.99702971 71.9957144,8 C71.4595894,7.99914026 70.9475703,8.21846777 70.583833,8.60482115 C69.805389,9.38909205 69.805389,10.6388751 70.583833,11.423146 C70.9597062,11.7924665 71.4698739,12 72.0018798,12 C72.5338857,12 73.0440534,11.7924665 73.4199266,11.423146 C73.7984657,11.0490106 74.0073758,10.5410499 73.9994762,10.0139836 C74.0118433,9.48728643 73.8047815,8.97840636 73.426092,8.60482115 L73.426092,8.60482115 Z" id="Path" fill="#093266"></path>
                        <path d="M66.9889761,11.9994587 C67.5337245,12.0124533 68.0568561,11.7909234 68.4199677,11.3934786 C69.1933441,10.6112418 69.1933441,9.37002733 68.4199677,8.58779055 C68.046707,8.21202225 67.533885,8 66.9982683,8 C66.4626516,8 65.9498296,8.21202225 65.5765689,8.58779055 C65.2001517,8.95730408 64.9923811,9.45995028 65.0004554,9.98154487 C64.9889296,10.5126977 65.1965925,11.0260047 65.5765689,11.4055982 C65.940499,11.7898025 66.453562,12.0055249 66.9889761,11.9994587 L66.9889761,11.9994587 Z" id="Path" fill="#093266"></path>
                        <path d="M70.2244915,14.0007049 C69.2391761,14.0005717 68.4358573,14.7955909 68.4197046,15.7868453 L68.4197046,25.6106171 L61.940224,25.6106171 L61.940224,16.4060406 C61.9414954,15.6018911 61.4202727,14.8913665 60.6561626,14.655623 C59.0536929,14.2062974 57.3964066,13.9858347 55.7329408,14.0007049 C53.2417432,14.0007049 51.2771883,14.7687453 49.8866149,16.2810107 C48.6095934,17.7192795 47.9352699,19.5989656 48.0049027,21.5263095 C48.0049027,26.2059972 50.6854549,28.5815638 55.9755514,28.5815638 L58.3898237,28.5815638 L58.3898237,28.9745147 C58.3898237,31.7370784 56.6974662,33.0826375 53.2121565,33.0826375 C52.1359812,33.079443 51.0616904,32.9918553 49.9990442,32.8206702 C49.5795921,32.7480162 49.1492322,32.8584343 48.8155774,33.1243141 C48.491197,33.3768719 48.2872137,33.7549464 48.2534307,34.1662293 C48.1895786,34.9600436 48.7532744,35.6657386 49.5374922,35.7737556 C50.6438505,35.9223831 51.7586942,35.9979596 52.8748685,36 C55.9163781,36 58.2596423,35.2617287 59.8277358,33.8030474 C61.2169315,32.5000559 61.9712444,30.6515821 61.8928853,28.7423165 L61.8928853,28.5815638 L71.0529182,28.5815638 C71.5777153,28.5750444 71.9998497,28.1451196 71.9998497,27.617048 L71.9998497,15.8106605 C72.0060242,15.3328338 71.821794,14.8723798 71.4881906,14.532245 C71.1545871,14.1921102 70.6994336,14.0006624 70.2244915,14.0007049 Z M52.5908365,18.1207353 C53.2993056,17.3218445 54.3265582,16.8848113 55.3897354,16.9299751 C56.4166939,16.9012868 57.4383577,17.08782 58.3898237,17.4777248 L58.3898237,25.6344323 L56.3187568,25.6344323 C53.1293138,25.6344323 51.5848897,24.1817048 51.5848897,21.1988505 C51.5333153,20.0833562 51.8913663,18.987749 52.5908365,18.1207353 L52.5908365,18.1207353 Z" id="Shape" fill="#093266"></path>
                        <path d="M27.714673,14 C26.8825257,14 26.0264317,14.0488002 25.1763244,14.1342005 C24.6046473,14.1931266 24.1199758,14.5880719 23.9378856,15.1433697 C23.7557954,15.6986675 23.9101145,16.3111569 24.3322038,16.7084102 C24.6372674,16.9890748 25.0418462,17.1301619 25.4517113,17.0988117 C26.0503784,17.0439115 26.7208856,17.0195114 27.4213261,17.0195114 C29.5885011,17.0195114 31.1570089,17.5319133 32.0909296,18.5445172 C33.0248503,19.557121 33.4020106,21.0455266 33.4020106,23.1561346 C33.4034233,24.0799196 33.3474357,25.0028691 33.2343838,25.919445 L12.7695696,25.919445 C12.6318762,22.5949325 11.7518355,19.9170224 10.1533943,17.9894151 C8.62210937,16.246353 6.66646111,14.945958 4.48401672,14.2196008 C4.05760241,14.0601877 3.58558848,14.086662 3.1789224,14.2928011 C2.60127264,14.5847396 2.24916226,15.1985665 2.28298401,15.8546725 C2.31680576,16.5107785 2.73008909,17.0836417 3.33457585,17.3123125 C4.94509218,17.8665624 6.37302892,18.8654047 7.4593923,20.1976234 C8.62209675,21.8799626 9.23577657,23.8924445 9.21348695,25.9499452 L1.4966678,25.9499452 C0.670080997,25.9499452 0,26.6327135 0,27.4749509 C0,28.3171883 0.670080997,29 1.4966678,29 L34.9286118,29 C35.8441353,29.0063246 36.6178209,28.3099624 36.7246131,27.3834506 C36.9000993,25.9424845 36.9920544,24.4922294 37,23.0402342 C37,20.0451228 36.2756128,17.7942143 34.850785,16.3302088 C33.4259573,14.8662033 30.9534621,14 27.714673,14 Z" id="Path" fill="#093266"></path>
                        <path d="M27.9931142,31 C27.1864063,30.9959607 26.4576483,31.4843811 26.1499661,32.2353201 C25.8422839,32.9862592 26.0170035,33.8500428 26.5918605,34.4199699 C27.3727997,35.1933434 28.6253037,35.1933434 29.4062429,34.4199699 C29.7869295,34.0483484 30.0012497,33.5368671 30,33.0029648 C30,31.8967718 29.1094585,31 28.0109267,31 L27.9931142,31 Z" id="Path" fill="#093266"></path>
                    </g>
                </g>
            </g>
        </g>
    </g>
</svg>