<?xml version="1.0" encoding="UTF-8"?>
<svg width="47px" height="47px" viewBox="0 0 47 47" version="1.1" xmlns="http://www.w3.org/2000/svg" xmlns:xlink="http://www.w3.org/1999/xlink">
    <!-- Generator: Sketch 55.2 (78181) - https://sketchapp.com -->
    <title>headphones</title>
    <desc>Created with Sketch.</desc>
    <defs>
        <path d="M3.91666667,31.3333331 L3.91666667,23.4999997 C3.91666667,12.6844235 12.6844238,3.91666667 23.5,3.91666667 C34.3155762,3.91666667 43.0833333,12.6844235 43.0833333,23.4999997 L43.0833333,31.3333331 L43.0833333,37.2083331 C43.0833333,40.453006 40.4530062,43.0833331 37.2083333,43.0833331 L35.25,43.0833331 C32.0053271,43.0833331 29.375,40.453006 29.375,37.2083331 L29.375,31.3333331 C29.375,28.0886602 32.0053271,25.4583331 35.25,25.4583331 L39.1666667,25.4583331 L39.1666667,23.4999998 C39.1666665,14.8475388 32.152461,7.83333333 23.5,7.83333333 C14.847539,7.83333333 7.83333346,14.8475388 7.83333333,23.4999997 L7.83333333,25.4583331 L11.75,25.4583331 C14.9946729,25.4583331 17.625,28.0886602 17.625,31.3333331 L17.625,37.2083331 C17.625,40.453006 14.9946729,43.0833331 11.75,43.0833331 L9.79166667,43.0833331 C6.54699376,43.0833331 3.91666667,40.453006 3.91666667,37.2083331 L3.91666667,31.3333331 Z M39.1666667,29.3749997 L35.25,29.3749997 C34.1684424,29.3749997 33.2916667,30.2517754 33.2916667,31.3333331 L33.2916667,37.2083331 C33.2916667,38.2898907 34.1684424,39.1666664 35.25,39.1666664 L37.2083333,39.1666664 C38.289891,39.1666664 39.1666667,38.2898907 39.1666667,37.2083331 L39.1666667,29.3749997 Z M7.83333333,29.3749997 L7.83333333,37.2083331 C7.83333333,38.2898907 8.71010903,39.1666664 9.79166667,39.1666664 L11.75,39.1666664 C12.8315576,39.1666664 13.7083333,38.2898907 13.7083333,37.2083331 L13.7083333,31.3333331 C13.7083333,30.2517754 12.8315576,29.3749997 11.75,29.3749997 L7.83333333,29.3749997 Z" id="path-1"></path>
    </defs>
    <g id="Page-1" stroke="none" stroke-width="1" fill="none" fill-rule="evenodd">
        <g id="Home-v1" transform="translate(-938.000000, -4834.000000)">
            <g id="Group-2" transform="translate(290.000000, 4267.000000)">
                <g id="headphones" transform="translate(648.000000, 567.000000)">
                    <mask id="mask-2" fill="white">
                        <use xlink:href="#path-1"></use>
                    </mask>
                    <use id="Combined-Shape" fill="#000000" fill-rule="nonzero" xlink:href="#path-1"></use>
                    <g id="COLOR/-black" mask="url(#mask-2)" fill="#035099">
                        <rect id="Rectangle" x="0" y="0" width="47" height="47"></rect>
                    </g>
                </g>
            </g>
        </g>
    </g>
</svg>