<?xml version="1.0" encoding="UTF-8"?>
<svg width="305px" height="318px" viewBox="0 0 305 318" version="1.1" xmlns="http://www.w3.org/2000/svg" xmlns:xlink="http://www.w3.org/1999/xlink">
    <!-- Generator: Sketch 55.2 (78181) - https://sketchapp.com -->
    <title>Image-2</title>
    <desc>Created with Sketch.</desc>
    <defs>
        <polygon id="path-1" points="0 318 305 318 305 0 0 0"></polygon>
    </defs>
    <g id="Page-1" stroke="none" stroke-width="1" fill="none" fill-rule="evenodd">
        <g id="Home-v1" transform="translate(-365.000000, -1367.000000)">
            <g id="Image-2" transform="translate(365.000000, 1367.000000)">
                <path d="M222,316 L107,316 C107,316 128.294994,308.296683 128.294994,256 L200.724193,256 C200.724193,259.479741 200.82492,262.777515 201.007188,265.875762 C203.46461,309.281545 222,316 222,316" id="Fill-1" fill="#C1C4D3"></path>
                <path d="M222.294988,318 L106.705012,318 C106.316536,318 106,317.687302 106,317.3 L106,316.7 C106,316.312698 106.316536,316 106.705012,316 L222.294988,316 C222.683464,316 223,316.312698 223,316.7 L223,317.3 C223,317.687302 222.683464,318 222.294988,318" id="Fill-3" fill="#C1C4D3"></path>
                <path d="M287,109.852941 L287,255.127844 C287,262.250042 281.217544,268 274.074415,268 L55.9449079,268 C48.782456,268 43,262.250042 43,255.127844 L43,109.852941 C43,104.24389 46.6118209,99.481881 51.6438942,97.7461655 C52.9836334,97.262599 54.4232089,97 55.9449079,97 L274.074415,97 C281.217544,97 287,102.749958 287,109.852941" id="Fill-5" fill="#DADCEA"></path>
                <path d="M287,109.878699 L287,245 L43,245 L43,109.878699 C43,109.7023 43,109.524298 43.0096618,109.357521 C43.0193235,109.181123 43.0289853,109.003121 43.0386471,108.836344 C43.0595809,108.659945 43.0692427,108.493168 43.0885662,108.324788 C43.1384854,107.981613 43.1867943,107.646455 43.256037,107.312902 C43.3558753,106.820589 43.4830886,106.32988 43.6408975,105.858415 C43.6908167,105.70126 43.7503976,105.542501 43.8099786,105.385346 C43.8582874,105.228191 43.9178683,105.071036 43.987111,104.923503 C44.3719716,104.009438 44.864722,103.154706 45.4379871,102.357706 C45.8228477,101.826906 46.2479657,101.336197 46.702069,100.863129 C48.0740406,99.477598 49.7616301,98.3951523 51.6472859,97.7472885 C52.1513084,97.5708899 52.6649926,97.4121312 53.1883386,97.2950667 C53.5329418,97.2261109 53.888817,97.1571551 54.2446923,97.1074428 C54.5796337,97.0689558 54.9161854,97.0288652 55.2511269,97.0192435 C55.458855,97.0096217 55.6649728,97 55.8727009,97 L274.048395,97 C274.945329,97 275.834212,97.0881993 276.682838,97.2645978 C277.098294,97.344779 277.502478,97.4522218 277.908273,97.5805116 C278.104729,97.6382421 278.312457,97.7071979 278.510523,97.7761537 C279.901818,98.2780878 281.175562,99.0157545 282.291496,99.9394415 C282.616776,100.204039 282.922732,100.479863 283.209365,100.774929 C285.549124,103.095372 287,106.320259 287,109.878699" id="Fill-7" fill="#191C2D"></path>
                <path d="M219,316 L104,316 C104,316 125.294994,308.296683 125.294994,256 L197.724193,256 C197.724193,259.479741 197.82492,262.777515 198.007188,265.875762 C200.46461,309.281545 219,316 219,316" id="Fill-9" fill="#D4D6DA"></path>
                <path d="M219.294988,318 L103.705012,318 C103.316536,318 103,317.687302 103,317.3 L103,316.7 C103,316.312698 103.316536,316 103.705012,316 L219.294988,316 C219.683464,316 220,316.312698 220,316.7 L220,317.3 C220,317.687302 219.683464,318 219.294988,318" id="Fill-11" fill="#C1C4D3"></path>
                <path d="M198,268.094496 C196.961086,268.39618 195.699202,268.557397 194.172339,268.557397 C160.944878,268.557397 156.241492,295.884541 145.307856,307.330974 C140.320101,312.520259 135.026974,314.91298 130.730752,316 L103,316 C103,316 124.521506,308.295086 124.521506,256 L197.715632,256 C197.715632,259.478145 197.817423,264.996249 198,268.094496" id="Fill-13" fill="#E5E6E9"></path>
                <path d="M284,109.852941 L284,255.127844 C284,262.250042 278.217544,268 271.074415,268 L52.9449079,268 C45.782456,268 40,262.250042 40,255.127844 L40,109.852941 C40,104.24389 43.6118209,99.481881 48.6438942,97.7461655 C49.9836334,97.262599 51.4232089,97 52.9449079,97 L271.074415,97 C278.217544,97 284,102.749958 284,109.852941" id="Fill-15" fill="#F3F4FA"></path>
                <path d="M284,109.878699 L284,245 L40,245 L40,109.878699 C40,109.7023 40,109.524298 40.0096618,109.357521 C40.0193235,109.181123 40.0289853,109.003121 40.0386471,108.836344 C40.0595809,108.659945 40.0692427,108.493168 40.0885662,108.324788 C40.1384854,107.981613 40.1867943,107.646455 40.256037,107.312902 C40.3558753,106.820589 40.4830886,106.32988 40.6408975,105.858415 C40.6908167,105.70126 40.7503976,105.542501 40.8099786,105.385346 C40.8582874,105.228191 40.9178683,105.071036 40.987111,104.923503 C41.3719716,104.009438 41.864722,103.154706 42.4379871,102.357706 C42.8228477,101.826906 43.2479657,101.336197 43.702069,100.863129 C45.0740406,99.477598 46.7616301,98.3951523 48.6472859,97.7472885 C49.1513084,97.5708899 49.6649926,97.4121312 50.1883386,97.2950667 C50.5329418,97.2261109 50.888817,97.1571551 51.2446923,97.1074428 C51.5796337,97.0689558 51.9161854,97.0288652 52.2511269,97.0192435 C52.458855,97.0096217 52.6649728,97 52.8727009,97 L271.048395,97 C271.945329,97 272.834212,97.0881993 273.682838,97.2645978 C274.098294,97.344779 274.502478,97.4522218 274.908273,97.5805116 C275.104729,97.6382421 275.312457,97.7071979 275.510523,97.7761537 C276.901818,98.2780878 278.175562,99.0157545 279.291496,99.9394415 C279.616776,100.204039 279.922732,100.479863 280.209365,100.774929 C282.549124,103.095372 284,106.320259 284,109.878699" id="Fill-17" fill="#37A8EE"></path>
                <path d="M166,256.5 C166,260.08932 163.090528,263 159.499222,263 C155.909472,263 153,260.08932 153,256.5 C153,252.91068 155.909472,250 159.499222,250 C163.090528,250 166,252.91068 166,256.5" id="Fill-19" fill="#DADCEA"></path>
                <path d="M273.852321,232.357034 L50.1476794,232.357034 L50.1476794,109.878699 C50.1476794,108.364878 51.4020497,107.107638 52.9221083,107.107638 L271.048907,107.107638 C272.588289,107.107638 273.852321,108.364878 273.852321,109.878699 L273.852321,232.357034 Z M280.209515,100.774929 C279.922894,100.479863 279.61695,100.205643 279.291683,99.9394415 C278.175792,99.0157545 276.892438,98.2877095 275.510859,97.7761537 C275.312801,97.7088015 275.106691,97.6398457 274.908633,97.5805116 C274.504464,97.4522218 274.098686,97.3544008 273.684857,97.2662015 C272.836265,97.0881993 271.947417,97 271.048907,97 L52.8818526,97 C52.6757429,97 52.468023,97.0096217 52.2603032,97.0192435 C51.925375,97.0304688 51.5888366,97.0689558 51.2539084,97.1090464 C50.8980473,97.1571551 50.5437963,97.2261109 50.1975965,97.2950667 C48.1848071,97.7216305 46.3427022,98.6292813 44.7984901,99.8833147 C44.7984901,99.8833147 44.7984901,99.8833147 44.7968798,99.8849184 C44.4184754,100.192814 44.0529529,100.515142 43.7115838,100.864732 C43.2478371,101.326576 42.8227359,101.826906 42.447552,102.357706 C41.8662584,103.145085 41.3719173,104.009438 40.9967333,104.925106 C40.9274934,105.071036 40.869525,105.229795 40.8196079,105.38695 C40.7600293,105.544105 40.7004507,105.70126 40.6521438,105.858415 C40.4830695,106.32988 40.3558612,106.812571 40.2672984,107.312902 C40.1980585,107.648059 40.1481413,107.981613 40.0982241,108.326392 C40.0789013,108.493168 40.06924,108.659945 40.0499172,108.837947 C40.0402558,109.004724 40.0289842,109.181123 40.0193228,109.357521 C40,109.525902 40,109.7023 40,109.878699 L40,245 L284,245 L284,109.878699 C284,106.320259 282.549181,103.095372 280.209515,100.774929 L280.209515,100.774929 Z" id="Fill-21" fill="#272A44"></path>
                <path d="M269,97 L269,200.49807 C269,205.191827 265.186477,209 260.489703,209 L68.5118997,209 C63.8039055,209 60,205.191827 60,200.49807 L60,97 L269,97 Z" id="Fill-23" fill="#D7CDCD"></path>
                <path d="M263,43.4731439 L263,188.526856 C263,193.207913 259.191344,197 254.489834,197 L62.5101662,197 C57.808656,197 54,193.207913 54,188.526856 L54,43.4731439 C54,38.792087 57.808656,35 62.5101662,35 L254.489834,35 C259.191344,35 263,38.792087 263,43.4731439" id="Fill-25" fill="#E8E6E6"></path>
                <path d="M263,43.6100465 L263,73 L54,73 L54,43.6100465 C54,38.8533567 57.808656,35 62.5101662,35 L254.489834,35 C259.191344,35 263,38.8533567 263,43.6100465" id="Fill-27" fill="#EF9426"></path>
                <path d="M245.882573,60 L138.117427,60 C134.738094,60 132,57.3144654 132,54 C132,50.6871069 134.738094,48 138.117427,48 L245.882573,48 C249.260303,48 252,50.6871069 252,54 C252,57.3144654 249.260303,60 245.882573,60" id="Fill-29" fill="#FFFFFF"></path>
                <path d="M80,54 C80,57.313385 77.3137438,60 74.0008014,60 C70.6862562,60 68,57.313385 68,54 C68,50.686615 70.6862562,48 74.0008014,48 C77.3137438,48 80,50.686615 80,54" id="Fill-31" fill="#E73A3A"></path>
                <path d="M96,54 C96,57.313385 93.3137438,60 90.0008014,60 C86.6862562,60 84,57.313385 84,54 C84,50.686615 86.6862562,48 90.0008014,48 C93.3137438,48 96,50.686615 96,54" id="Fill-33" fill="#EED467"></path>
                <path d="M110,54 C110,57.313385 107.313744,60 104.000801,60 C100.686256,60 98,57.313385 98,54 C98,50.686615 100.686256,48 104.000801,48 C107.313744,48 110,50.686615 110,54" id="Fill-35" fill="#63CD63"></path>
                <path d="M150.874627,171 L76.1253733,171 C71.6373628,171 68,167.409228 68,162.978704 L68,102.021296 C68,97.5907723 71.6373628,94 76.1253733,94 L150.874627,94 C155.362637,94 159,97.5907723 159,102.021296 L159,162.978704 C159,167.409228 155.362637,171 150.874627,171" id="Fill-37" fill="#D7CDCD"></path>
                <path d="M148.874627,168 L74.1253733,168 C69.6373628,168 66,164.409228 66,159.978704 L66,99.0212963 C66,94.5907723 69.6373628,91 74.1253733,91 L148.874627,91 C153.361029,91 157,94.5907723 157,99.0212963 L157,159.978704 C157,164.409228 153.361029,168 148.874627,168" id="Fill-39" fill="#FFFFFF"></path>
                <path d="M253.006043,102 L165.993957,102 C164.892456,102 164,101.239466 164,100.300788 L164,99.6978417 C164,98.7605344 164.892456,98 165.993957,98 L253.006043,98 C254.107544,98 255,98.7605344 255,99.6978417 L255,100.300788 C255,101.239466 254.107544,102 253.006043,102" id="Fill-41" fill="#FFFFFF"></path>
                <path d="M253.006043,113 L165.993957,113 C164.892456,113 164,112.239466 164,111.300788 L164,110.697842 C164,109.760534 164.892456,109 165.993957,109 L253.006043,109 C254.107544,109 255,109.760534 255,110.697842 L255,111.300788 C255,112.239466 254.107544,113 253.006043,113" id="Fill-43" fill="#FFFFFF"></path>
                <path d="M253.006043,124 L165.993957,124 C164.892456,124 164,123.239466 164,122.300788 L164,121.697842 C164,120.760534 164.892456,120 165.993957,120 L253.006043,120 C254.107544,120 255,120.760534 255,121.697842 L255,122.300788 C255,123.239466 254.107544,124 253.006043,124" id="Fill-45" fill="#FFFFFF"></path>
                <path d="M253.006043,136 L165.993957,136 C164.892456,136 164,135.239466 164,134.300788 L164,133.697842 C164,132.760534 164.892456,132 165.993957,132 L253.006043,132 C254.107544,132 255,132.760534 255,133.697842 L255,134.300788 C255,135.239466 254.107544,136 253.006043,136" id="Fill-47" fill="#FFFFFF"></path>
                <path d="M253.006043,147 L165.993957,147 C164.892456,147 164,146.239466 164,145.300788 L164,144.697842 C164,143.760534 164.892456,143 165.993957,143 L253.006043,143 C254.107544,143 255,143.760534 255,144.697842 L255,145.300788 C255,146.239466 254.107544,147 253.006043,147" id="Fill-49" fill="#FFFFFF"></path>
                <path d="M253.006043,179 L165.993957,179 C164.892456,179 164,178.239466 164,177.300788 L164,176.697842 C164,175.760534 164.892456,175 165.993957,175 L253.006043,175 C254.107544,175 255,175.760534 255,176.697842 L255,177.300788 C255,178.239466 254.107544,179 253.006043,179" id="Fill-51" fill="#FFFFFF"></path>
                <path d="M252.646547,191 L68.351841,191 C67.052606,191 66,190.103803 66,188.999315 C66,187.894827 67.052606,187 68.351841,187 L252.646547,187 C253.945782,187 255,187.894827 255,188.999315 C255,190.103803 253.945782,191 252.646547,191" id="Fill-53" fill="#FFFFFF"></path>
                <path d="M181,160.5 C181,164.642286 177.642639,168 173.500789,168 C169.358939,168 166,164.642286 166,160.5 C166,156.357714 169.358939,153 173.500789,153 C177.642639,153 181,156.357714 181,160.5" id="Fill-55" fill="#EF9426"></path>
                <path d="M219,160.5 C219,164.642286 215.642286,168 211.5,168 C207.357714,168 204,164.642286 204,160.5 C204,156.357714 207.357714,153 211.5,153 C215.642286,153 219,156.357714 219,160.5" id="Fill-57" fill="#FFFFFF"></path>
                <path d="M255,160.5 C255,164.642286 251.642639,168 247.500789,168 C243.358939,168 240,164.642286 240,160.5 C240,156.357714 243.358939,153 247.500789,153 C251.642639,153 255,156.357714 255,160.5" id="Fill-59" fill="#EF9426"></path>
                <mask id="mask-2" fill="white">
                    <use xlink:href="#path-1"></use>
                </mask>
                <g id="Clip-62"></g>
                <polygon id="Fill-61" fill="#D7CDCD" mask="url(#mask-2)" points="54 76 263 76 263 73 54 73"></polygon>
                <path d="M299,25 C299,26.6575 297.6575,28 296,28 C294.3425,28 293,26.6575 293,25 C293,23.3425 294.3425,22 296,22 C297.6575,22 299,23.3425 299,25 Z" id="Stroke-63" stroke="#FFFFFF" mask="url(#mask-2)"></path>
                <path d="M7,65 C7,66.6575 5.6575,68 4,68 C2.3425,68 1,66.6575 1,65 C1,63.3425 2.3425,62 4,62 C5.6575,62 7,63.3425 7,65 Z" id="Stroke-64" stroke="#FFFFFF" mask="url(#mask-2)"></path>
                <path d="M88,214 C88,215.6575 86.6575,217 85,217 C83.3425,217 82,215.6575 82,214 C82,212.3425 83.3425,211 85,211 C86.6575,211 88,212.3425 88,214 Z" id="Stroke-65" stroke="#FFFFFF" mask="url(#mask-2)"></path>
                <path d="M304,114 C304,115.6575 302.6575,117 301,117 C299.3425,117 298,115.6575 298,114 C298,112.3425 299.3425,111 301,111 C302.6575,111 304,112.3425 304,114 Z" id="Stroke-66" stroke="#FFFFFF" mask="url(#mask-2)"></path>
                <path d="M209,6 L217,14" id="Stroke-67" stroke="#FFFFFF" stroke-linecap="round" stroke-linejoin="round" mask="url(#mask-2)"></path>
                <path d="M217,6 L209,14" id="Stroke-68" stroke="#FFFFFF" stroke-linecap="round" stroke-linejoin="round" mask="url(#mask-2)"></path>
                <path d="M85,0 L91,6" id="Stroke-69" stroke="#FFFFFF" stroke-linecap="round" stroke-linejoin="round" mask="url(#mask-2)"></path>
                <path d="M91,0 L85,6" id="Stroke-70" stroke="#FFFFFF" stroke-linecap="round" stroke-linejoin="round" mask="url(#mask-2)"></path>
                <path d="M9,170 L15,176" id="Stroke-71" stroke="#FFFFFF" stroke-linecap="round" stroke-linejoin="round" mask="url(#mask-2)"></path>
                <path d="M15,170 L9,176" id="Stroke-72" stroke="#FFFFFF" stroke-linecap="round" stroke-linejoin="round" mask="url(#mask-2)"></path>
                <path d="M276,185 L282,191" id="Stroke-73" stroke="#FFFFFF" stroke-linecap="round" stroke-linejoin="round" mask="url(#mask-2)"></path>
                <path d="M282,185 L276,191" id="Stroke-74" stroke="#FFFFFF" stroke-linecap="round" stroke-linejoin="round" mask="url(#mask-2)"></path>
            </g>
        </g>
    </g>
</svg>