<?xml version="1.0" encoding="UTF-8"?>
<svg width="46px" height="47px" viewBox="0 0 46 47" version="1.1" xmlns="http://www.w3.org/2000/svg" xmlns:xlink="http://www.w3.org/1999/xlink">
    <!-- Generator: Sketch 55.2 (78181) - https://sketchapp.com -->
    <title>server</title>
    <desc>Created with Sketch.</desc>
    <defs>
        <path d="M7.66666667,5.875 C6.6081209,5.875 5.75,6.7517757 5.75,7.83333333 L5.75,15.6666667 C5.75,16.7482243 6.6081209,17.625 7.66666667,17.625 L38.3333333,17.625 C39.3918791,17.625 40.25,16.7482243 40.25,15.6666667 L40.25,7.83333333 C40.25,6.7517757 39.3918791,5.875 38.3333333,5.875 L7.66666667,5.875 Z M7.66666667,1.95833333 L38.3333333,1.95833333 C41.5089706,1.95833333 44.0833333,4.58866043 44.0833333,7.83333333 L44.0833333,15.6666667 C44.0833333,18.9113396 41.5089706,21.5416667 38.3333333,21.5416667 L7.66666667,21.5416667 C4.49102936,21.5416667 1.91666667,18.9113396 1.91666667,15.6666667 L1.91666667,7.83333333 C1.91666667,4.58866043 4.49102936,1.95833333 7.66666667,1.95833333 Z M7.66666667,25.4583333 L38.3333333,25.4583333 C41.5089706,25.4583333 44.0833333,28.0886604 44.0833333,31.3333333 L44.0833333,39.1666667 C44.0833333,42.4113396 41.5089706,45.0416667 38.3333333,45.0416667 L7.66666667,45.0416667 C4.49102936,45.0416667 1.91666667,42.4113396 1.91666667,39.1666667 L1.91666667,31.3333333 C1.91666667,28.0886604 4.49102936,25.4583333 7.66666667,25.4583333 Z M7.66666667,29.375 C6.6081209,29.375 5.75,30.2517757 5.75,31.3333333 L5.75,39.1666667 C5.75,40.2482243 6.6081209,41.125 7.66666667,41.125 L38.3333333,41.125 C39.3918791,41.125 40.25,40.2482243 40.25,39.1666667 L40.25,31.3333333 C40.25,30.2517757 39.3918791,29.375 38.3333333,29.375 L7.66666667,29.375 Z" id="path-1"></path>
    </defs>
    <g id="Page-1" stroke="none" stroke-width="1" fill="none" fill-rule="evenodd">
        <g id="Home-v1" transform="translate(-560.000000, -4522.000000)">
            <g id="Group-2" transform="translate(290.000000, 4267.000000)">
                <g id="server" transform="translate(270.000000, 255.000000)">
                    <mask id="mask-2" fill="white">
                        <use xlink:href="#path-1"></use>
                    </mask>
                    <use id="Combined-Shape" fill="#000000" fill-rule="nonzero" xlink:href="#path-1"></use>
                    <g id="COLOR/-black" mask="url(#mask-2)" fill="#035099">
                        <rect id="Rectangle" x="0" y="0" width="46" height="47"></rect>
                    </g>
                </g>
            </g>
        </g>
    </g>
</svg>