<?xml version="1.0" encoding="UTF-8"?>
<svg width="80px" height="81px" viewBox="0 0 80 81" version="1.1" xmlns="http://www.w3.org/2000/svg" xmlns:xlink="http://www.w3.org/1999/xlink">
    <!-- Generator: Sketch 55.2 (78181) - https://sketchapp.com -->
    <title>settings</title>
    <desc>Created with Sketch.</desc>
    <g id="Page-1" stroke="none" stroke-width="1" fill="none" fill-rule="evenodd">
        <g id="Home-v1" transform="translate(-922.000000, -3735.000000)">
            <g id="Group-17" transform="translate(418.000000, 3526.000000)">
                <g id="settings" transform="translate(506.000000, 210.000000)">
                    <path d="M40,58.8235294 L57.9213974,76.5791855 C62.5676856,81.1402715 69.8689956,81.1402715 74.5152838,76.5791855 L74.5152838,76.5791855 C79.1615721,72.0180995 79.1615721,64.8506787 74.5152838,60.2895928 L57.9213974,44" id="Path" fill="#FF8C71"></path>
                    <path d="M77.0488879,20.7747391 L67.4299346,30.6588286 L55.8545839,18.7644158 L65.4735373,8.88032626 C63.3541069,8.2102185 60.9086103,7.87516462 58.4631137,8.04269156 C49.3332596,8.88032626 41.9967698,17.2566733 42.1598029,26.638182 C42.1598029,28.4809783 42.4858691,30.3237747 42.9749685,31.9990441 L11.6726119,60.4786241 C6.94465176,64.6667976 6.78161865,72.2055099 11.1835125,76.7287373 L11.1835125,76.7287373 C15.5854064,81.2519647 22.7588632,81.0844378 26.997724,76.2261565 L54.7133522,44.0609839 C57.484915,44.8986186 60.582544,45.2336724 63.8432062,44.5635647 C70.3645305,43.2233491 75.744623,38.1975409 77.5379872,31.6639902 C78.3531527,27.6433436 78.0270865,23.9577509 77.0488879,20.7747391 Z" id="Path" fill="#FFDF7B"></path>
                    <polygon id="Path" fill="#FF8C71" points="16.920354 28 23.7699115 25.7699115 26 19.079646 16.920354 10 8 19.079646"></polygon>
                    <g id="settings-copy" stroke="#111111" stroke-width="2">
                        <path d="M32,50.8235294 L49.9213974,68.5791855 C54.5676856,73.1402715 61.8689956,73.1402715 66.5152838,68.5791855 L66.5152838,68.5791855 C71.1615721,64.0180995 71.1615721,56.8506787 66.5152838,52.2895928 L49.9213974,36" id="Path"></path>
                        <path d="M26,30 L16,20" id="Path"></path>
                        <path d="M69.0488879,12.7747391 L59.4299346,22.6588286 L47.8545839,10.7644158 L57.4735373,0.880326264 C55.3541069,0.210218501 52.9086103,-0.124835381 50.4631137,0.0426915598 C41.3332596,0.880326264 33.9967698,9.25667331 34.1598029,18.638182 C34.1598029,20.4809783 34.4858691,22.3237747 34.9749685,23.9990441 L3.67261187,52.4786241 C-1.05534824,56.6667976 -1.21838135,64.2055099 3.18351255,68.7287373 L3.18351255,68.7287373 C7.58540645,73.2519647 14.7588632,73.0844378 18.997724,68.2261565 L46.7133522,36.0609839 C49.484915,36.8986186 52.582544,37.2336724 55.8432062,36.5635647 C62.3645305,35.2233491 67.744623,30.1975409 69.5379872,23.6639902 C70.3531527,19.6433436 70.0270865,15.9577509 69.0488879,12.7747391 Z" id="Path" stroke-linecap="square"></path>
                        <polygon id="Path" stroke-linecap="square" points="8.92035398 20 15.7699115 17.7699115 18 11.079646 8.92035398 2 0 11.079646"></polygon>
                        <path d="M50,52 L56,58" id="Path" stroke-linecap="square"></path>
                    </g>
                </g>
            </g>
        </g>
    </g>
</svg>