<?xml version="1.0" encoding="UTF-8"?>
<svg width="62px" height="76px" viewBox="0 0 62 76" version="1.1" xmlns="http://www.w3.org/2000/svg" xmlns:xlink="http://www.w3.org/1999/xlink">
    <!-- Generator: Sketch 55.2 (78181) - https://sketchapp.com -->
    <title>mdpi/Group 12</title>
    <desc>Created with Sketch.</desc>
    <defs>
        <path d="M2.7503387,10.1654429 C2.12116068,9.53459596 1.10106154,9.53459596 0.471883519,10.1654429 C-0.157294506,10.7962898 -0.157294506,11.8190948 0.471883519,12.4499417 L8.52743907,20.5268648 C9.1566171,21.1577117 10.1767162,21.1577117 10.8058943,20.5268648 L28.5281165,2.75763403 C29.1572945,2.1267871 29.1572945,1.10398213 28.5281165,0.4731352 C27.8989385,-0.157711733 26.8788393,-0.157711733 26.2496613,0.4731352 L9.66666667,17.1001166 L2.7503387,10.1654429 Z" id="path-1"></path>
        <path d="M32.5404024,75.6352939 C31.5706966,76.1215687 30.4293034,76.1215687 29.4595976,75.6352939 C28.5059046,75.1570491 26.9048243,74.2681376 24.8688925,72.9919487 C21.4929341,70.8757871 18.1175712,68.4214726 14.9540397,65.6452649 C5.66872776,57.4967911 0,48.2580947 0,38 L0,10.3636364 C0,8.77845724 1.07569095,7.39669741 2.60904396,7.012235 L30.1645995,0.10314409 C30.7130928,-0.0343813635 31.2869072,-0.0343813635 31.8354005,0.10314409 L59.390956,7.012235 C60.924309,7.39669741 62,8.77845724 62,10.3636364 L62,38 C62,48.2580947 56.3312722,57.4967911 47.0459603,65.6452649 C43.8824288,68.4214726 40.5070659,70.8757871 37.1311075,72.9919487 C35.0951757,74.2681376 33.4940954,75.1570491 32.5404024,75.6352939 Z M33.4800037,67.1330513 C36.5623786,65.2009175 39.645349,62.9592092 42.5095952,60.4456441 C50.4465055,53.4804817 55.1111111,45.8782689 55.1111111,38 L55.1111111,13.0608639 L31,7.0154094 L6.88888889,13.0608639 L6.88888889,38 C6.88888889,45.8782689 11.5534945,53.4804817 19.4904048,60.4456441 C22.354651,62.9592092 25.4376214,65.2009175 28.5199963,67.1330513 C29.4056671,67.6882188 30.2373969,68.1835578 31,68.616872 C31.7626031,68.1835578 32.5943329,67.6882188 33.4800037,67.1330513 Z" id="path-3"></path>
    </defs>
    <g id="Page-1" stroke="none" stroke-width="1" fill="none" fill-rule="evenodd">
        <g id="Pricing-[3]" transform="translate(-436.000000, -1291.000000)">
            <g id="Group-14" transform="translate(403.000000, 1274.000000)">
                <g id="Group-12" transform="translate(33.000000, 17.000000)">
                    <g id="check" transform="translate(17.000000, 28.000000)">
                        <mask id="mask-2" fill="white">
                            <use xlink:href="#path-1"></use>
                        </mask>
                        <use id="Shape" fill="#035099" fill-rule="nonzero" xlink:href="#path-1"></use>
                    </g>
                    <g id="shield">
                        <mask id="mask-4" fill="white">
                            <use xlink:href="#path-3"></use>
                        </mask>
                        <use id="Shape" fill="#035099" fill-rule="nonzero" xlink:href="#path-3"></use>
                    </g>
                </g>
            </g>
        </g>
    </g>
</svg>